<?xml version="1.0" encoding="utf-8"?>
<!-- Generator: Adobe Illustrator 24.1.2, SVG Export Plug-In . SVG Version: 6.00 Build 0)  -->
<svg version="1.1" xmlns="http://www.w3.org/2000/svg" xmlns:xlink="http://www.w3.org/1999/xlink" x="0px" y="0px"
	 viewBox="0 0 2500 1600" style="enable-background:new 0 0 2500 1600;" xml:space="preserve">
<style type="text/css">
	.st0{fill:url(#SVGID_1_);}
	.st1{opacity:0.6;}
	.st2{filter:url(#Adobe_OpacityMaskFilter);}
	.st3{filter:url(#Adobe_OpacityMaskFilter_1_);}
	.st4{mask:url(#SVGID_2_);fill:url(#SVGID_3_);}
	.st5{fill:url(#SVGID_4_);}
	.st6{filter:url(#Adobe_OpacityMaskFilter_2_);}
	.st7{filter:url(#Adobe_OpacityMaskFilter_3_);}
	.st8{mask:url(#SVGID_5_);fill:url(#SVGID_6_);}
	.st9{fill:url(#SVGID_7_);}
	.st10{filter:url(#Adobe_OpacityMaskFilter_4_);}
	.st11{filter:url(#Adobe_OpacityMaskFilter_5_);}
	.st12{mask:url(#SVGID_8_);fill:url(#SVGID_9_);}
	.st13{fill:url(#SVGID_10_);}
	.st14{filter:url(#Adobe_OpacityMaskFilter_6_);}
	.st15{filter:url(#Adobe_OpacityMaskFilter_7_);}
	.st16{mask:url(#SVGID_11_);fill:url(#SVGID_12_);}
	.st17{fill:url(#SVGID_13_);}
	.st18{fill:#984983;}
	.st19{fill:#BF6493;}
	.st20{fill:#7A3B71;}
	.st21{fill:#844077;}
	.st22{fill:#8E447E;}
	.st23{filter:url(#Adobe_OpacityMaskFilter_8_);}
	.st24{filter:url(#Adobe_OpacityMaskFilter_9_);}
	.st25{mask:url(#SVGID_14_);fill:url(#SVGID_15_);}
	.st26{fill:url(#SVGID_16_);}
	.st27{fill:#753874;}
	.st28{fill:#844484;}
	.st29{fill:#632E63;}
	.st30{fill:#2B2462;}
	.st31{opacity:0.25;}
	.st32{fill:#5A2D70;}
	.st33{fill:#6E387F;}
	.st34{fill:#4C2A6C;}
	.st35{opacity:0.35;}
	.st36{fill:#402768;}
</style>
<g id="BACKGROUND">
	<linearGradient id="SVGID_1_" gradientUnits="userSpaceOnUse" x1="1250" y1="-9.094947e-13" x2="1250" y2="1600">
		<stop  offset="0" style="stop-color:#C95893"/>
		<stop  offset="1.649513e-03" style="stop-color:#CA5993"/>
		<stop  offset="3.207836e-02" style="stop-color:#D36C95"/>
		<stop  offset="6.742502e-02" style="stop-color:#DA7A96"/>
		<stop  offset="0.1121" style="stop-color:#DE8297"/>
		<stop  offset="0.1963" style="stop-color:#DF8497"/>
		<stop  offset="0.2481" style="stop-color:#E08D98"/>
		<stop  offset="0.3603" style="stop-color:#E3989A"/>
		<stop  offset="0.5184" style="stop-color:#E49F9B"/>
		<stop  offset="0.9574" style="stop-color:#E4A19B"/>
	</linearGradient>
	<rect class="st0" width="2500" height="1600"/>
</g>
<g id="MID-GROUND">
	<g>
		<g class="st1">
			<defs>
				<filter id="Adobe_OpacityMaskFilter" filterUnits="userSpaceOnUse" x="411" y="98.2" width="849.4" height="166.8">
					<feFlood  style="flood-color:white;flood-opacity:1" result="back"/>
					<feBlend  in="SourceGraphic" in2="back" mode="normal"/>
				</filter>
			</defs>
			<mask maskUnits="userSpaceOnUse" x="411" y="98.2" width="849.4" height="166.8" id="SVGID_2_">
				<g class="st2">
					<defs>
						<filter id="Adobe_OpacityMaskFilter_1_" filterUnits="userSpaceOnUse" x="411" y="98.2" width="849.4" height="166.8">
							<feFlood  style="flood-color:white;flood-opacity:1" result="back"/>
							<feBlend  in="SourceGraphic" in2="back" mode="normal"/>
						</filter>
					</defs>
					<mask maskUnits="userSpaceOnUse" x="411" y="98.2" width="849.4" height="166.8" id="SVGID_2_">
						<g class="st3">
						</g>
					</mask>
					<linearGradient id="SVGID_3_" gradientUnits="userSpaceOnUse" x1="835.6787" y1="98.175" x2="835.6787" y2="265">
						<stop  offset="2.644230e-03" style="stop-color:#FFFFFF"/>
						<stop  offset="0.1919" style="stop-color:#FCFCFC"/>
						<stop  offset="0.3249" style="stop-color:#F3F3F3"/>
						<stop  offset="0.4408" style="stop-color:#E3E3E3"/>
						<stop  offset="0.547" style="stop-color:#CDCDCD"/>
						<stop  offset="0.6464" style="stop-color:#B1B1B1"/>
						<stop  offset="0.7408" style="stop-color:#8E8E8E"/>
						<stop  offset="0.8314" style="stop-color:#646464"/>
						<stop  offset="0.9166" style="stop-color:#363636"/>
						<stop  offset="1" style="stop-color:#000000"/>
					</linearGradient>
					<path class="st4" d="M1260.4,265H411c29.7-48.3,102.6-71.9,150.5-41.6c3.8-53,41.9-102,92.4-118.7
						c50.5-16.7,110.3-0.2,145,40.1c42-20.7,99.9,8.1,108.7,54.1c13.1-36,54.2-59.5,91.9-52.5c37.7,7,67.6,43.6,67,81.9
						c-1.9-13.7,13.9-26.5,26.9-21.7c13,4.8,16.6,24.8,6.2,34C1141.3,210.1,1226.6,225.9,1260.4,265z"/>
				</g>
			</mask>
			<linearGradient id="SVGID_4_" gradientUnits="userSpaceOnUse" x1="835.6787" y1="98.175" x2="835.6787" y2="265">
				<stop  offset="2.644230e-03" style="stop-color:#F6DBD9"/>
				<stop  offset="0.8819" style="stop-color:#F6DBD9"/>
				<stop  offset="1" style="stop-color:#F6DBD9"/>
			</linearGradient>
			<path class="st5" d="M1260.4,265H411c29.7-48.3,102.6-71.9,150.5-41.6c3.8-53,41.9-102,92.4-118.7c50.5-16.7,110.3-0.2,145,40.1
				c42-20.7,99.9,8.1,108.7,54.1c13.1-36,54.2-59.5,91.9-52.5c37.7,7,67.6,43.6,67,81.9c-1.9-13.7,13.9-26.5,26.9-21.7
				c13,4.8,16.6,24.8,6.2,34C1141.3,210.1,1226.6,225.9,1260.4,265z"/>
			<defs>
				<filter id="Adobe_OpacityMaskFilter_2_" filterUnits="userSpaceOnUse" x="1467" y="161.9" width="596.2" height="143.1">
					<feFlood  style="flood-color:white;flood-opacity:1" result="back"/>
					<feBlend  in="SourceGraphic" in2="back" mode="normal"/>
				</filter>
			</defs>
			<mask maskUnits="userSpaceOnUse" x="1467" y="161.9" width="596.2" height="143.1" id="SVGID_5_">
				<g class="st6">
					<defs>
						<filter id="Adobe_OpacityMaskFilter_3_" filterUnits="userSpaceOnUse" x="1467" y="161.9" width="596.2" height="143.1">
							<feFlood  style="flood-color:white;flood-opacity:1" result="back"/>
							<feBlend  in="SourceGraphic" in2="back" mode="normal"/>
						</filter>
					</defs>
					<mask maskUnits="userSpaceOnUse" x="1467" y="161.9" width="596.2" height="143.1" id="SVGID_5_">
						<g class="st7">
						</g>
					</mask>
					<linearGradient id="SVGID_6_" gradientUnits="userSpaceOnUse" x1="1765.1073" y1="161.9043" x2="1765.1073" y2="305">
						<stop  offset="2.644230e-03" style="stop-color:#FFFFFF"/>
						<stop  offset="0.1919" style="stop-color:#FCFCFC"/>
						<stop  offset="0.3249" style="stop-color:#F3F3F3"/>
						<stop  offset="0.4408" style="stop-color:#E3E3E3"/>
						<stop  offset="0.547" style="stop-color:#CDCDCD"/>
						<stop  offset="0.6464" style="stop-color:#B1B1B1"/>
						<stop  offset="0.7408" style="stop-color:#8E8E8E"/>
						<stop  offset="0.8314" style="stop-color:#646464"/>
						<stop  offset="0.9166" style="stop-color:#363636"/>
						<stop  offset="1" style="stop-color:#000000"/>
					</linearGradient>
					<path class="st8" d="M2063.2,305H1467c26.9-16.5,63.5-25.5,92.8-13.9c-24.8-29.6-18.5-78.2,9.6-104.6
						c28.1-26.4,72.7-31.1,108.4-16.4c35.7,14.7,62.7,46.2,78,81.7c11.5-41,57.1-69.1,98.9-60.9s73.4,51.5,68.5,93.7
						C1963.7,268.6,2029.1,277.8,2063.2,305z"/>
				</g>
			</mask>
			<linearGradient id="SVGID_7_" gradientUnits="userSpaceOnUse" x1="1765.1073" y1="161.9043" x2="1765.1073" y2="305">
				<stop  offset="2.644230e-03" style="stop-color:#F6DBD9"/>
				<stop  offset="0.8819" style="stop-color:#F6DBD9"/>
				<stop  offset="1" style="stop-color:#F6DBD9"/>
			</linearGradient>
			<path class="st9" d="M2063.2,305H1467c26.9-16.5,63.5-25.5,92.8-13.9c-24.8-29.6-18.5-78.2,9.6-104.6
				c28.1-26.4,72.7-31.1,108.4-16.4c35.7,14.7,62.7,46.2,78,81.7c11.5-41,57.1-69.1,98.9-60.9s73.4,51.5,68.5,93.7
				C1963.7,268.6,2029.1,277.8,2063.2,305z"/>
			<defs>
				<filter id="Adobe_OpacityMaskFilter_4_" filterUnits="userSpaceOnUse" x="1342.6" y="375" width="1101.4" height="127.7">
					<feFlood  style="flood-color:white;flood-opacity:1" result="back"/>
					<feBlend  in="SourceGraphic" in2="back" mode="normal"/>
				</filter>
			</defs>
			<mask maskUnits="userSpaceOnUse" x="1342.6" y="375" width="1101.4" height="127.7" id="SVGID_8_">
				<g class="st10">
					<defs>
						<filter id="Adobe_OpacityMaskFilter_5_" filterUnits="userSpaceOnUse" x="1342.6" y="375" width="1101.4" height="127.7">
							<feFlood  style="flood-color:white;flood-opacity:1" result="back"/>
							<feBlend  in="SourceGraphic" in2="back" mode="normal"/>
						</filter>
					</defs>
					<mask maskUnits="userSpaceOnUse" x="1342.6" y="375" width="1101.4" height="127.7" id="SVGID_8_">
						<g class="st11">
						</g>
					</mask>
					<linearGradient id="SVGID_9_" gradientUnits="userSpaceOnUse" x1="1893.3215" y1="375.0416" x2="1893.3215" y2="502.7894">
						<stop  offset="2.644230e-03" style="stop-color:#FFFFFF"/>
						<stop  offset="0.1919" style="stop-color:#FCFCFC"/>
						<stop  offset="0.3249" style="stop-color:#F3F3F3"/>
						<stop  offset="0.4408" style="stop-color:#E3E3E3"/>
						<stop  offset="0.547" style="stop-color:#CDCDCD"/>
						<stop  offset="0.6464" style="stop-color:#B1B1B1"/>
						<stop  offset="0.7408" style="stop-color:#8E8E8E"/>
						<stop  offset="0.8314" style="stop-color:#646464"/>
						<stop  offset="0.9166" style="stop-color:#363636"/>
						<stop  offset="1" style="stop-color:#000000"/>
					</linearGradient>
					<path class="st12" d="M2444,502.8H1342.8c-3-48.4,24.1-100.3,68.8-119.1c44.7-18.8,100.6-6.3,133.1,29.7
						c25.8-26.1,66.5-36.4,101.6-25.7c35.1,10.7,63.1,42,69.9,78c10.9-18.1,44-13,49,7.5c18.5-31.6,53.5-52.9,90.1-54.6
						s73.5,16,94.9,45.7c23.5-35.3,85.4-32.9,106.1,4.1c8.1-19.6,24.7-34.7,38.2-51.2c13.4-16.4,33-29.1,54.3-29.2
						c21.2-0.1,43,15.4,45.2,36.5c21-28.1,61.3-40,94.2-27.7c32.9,12.3,55.5,47.7,52.9,82.7C2370.2,455.6,2419.8,473.9,2444,502.8z"
						/>
				</g>
			</mask>
			<linearGradient id="SVGID_10_" gradientUnits="userSpaceOnUse" x1="1893.3215" y1="375.0416" x2="1893.3215" y2="502.7894">
				<stop  offset="2.644230e-03" style="stop-color:#F6DBD9"/>
				<stop  offset="0.8819" style="stop-color:#F6DBD9"/>
				<stop  offset="1" style="stop-color:#F6DBD9"/>
			</linearGradient>
			<path class="st13" d="M2444,502.8H1342.8c-3-48.4,24.1-100.3,68.8-119.1c44.7-18.8,100.6-6.3,133.1,29.7
				c25.8-26.1,66.5-36.4,101.6-25.7c35.1,10.7,63.1,42,69.9,78c10.9-18.1,44-13,49,7.5c18.5-31.6,53.5-52.9,90.1-54.6
				s73.5,16,94.9,45.7c23.5-35.3,85.4-32.9,106.1,4.1c8.1-19.6,24.7-34.7,38.2-51.2c13.4-16.4,33-29.1,54.3-29.2
				c21.2-0.1,43,15.4,45.2,36.5c21-28.1,61.3-40,94.2-27.7c32.9,12.3,55.5,47.7,52.9,82.7C2370.2,455.6,2419.8,473.9,2444,502.8z"/>
			<defs>
				<filter id="Adobe_OpacityMaskFilter_6_" filterUnits="userSpaceOnUse" x="1994.9" y="58" width="505.1" height="111.8">
					<feFlood  style="flood-color:white;flood-opacity:1" result="back"/>
					<feBlend  in="SourceGraphic" in2="back" mode="normal"/>
				</filter>
			</defs>
			<mask maskUnits="userSpaceOnUse" x="1994.9" y="58" width="505.1" height="111.8" id="SVGID_11_">
				<g class="st14">
					<defs>
						<filter id="Adobe_OpacityMaskFilter_7_" filterUnits="userSpaceOnUse" x="1994.9" y="58" width="505.1" height="111.8">
							<feFlood  style="flood-color:white;flood-opacity:1" result="back"/>
							<feBlend  in="SourceGraphic" in2="back" mode="normal"/>
						</filter>
					</defs>
					<mask maskUnits="userSpaceOnUse" x="1994.9" y="58" width="505.1" height="111.8" id="SVGID_11_">
						<g class="st15">
						</g>
					</mask>
					<linearGradient id="SVGID_12_" gradientUnits="userSpaceOnUse" x1="2247.4255" y1="57.9775" x2="2247.4255" y2="169.756">
						<stop  offset="2.644230e-03" style="stop-color:#FFFFFF"/>
						<stop  offset="0.1919" style="stop-color:#FCFCFC"/>
						<stop  offset="0.3249" style="stop-color:#F3F3F3"/>
						<stop  offset="0.4408" style="stop-color:#E3E3E3"/>
						<stop  offset="0.547" style="stop-color:#CDCDCD"/>
						<stop  offset="0.6464" style="stop-color:#B1B1B1"/>
						<stop  offset="0.7408" style="stop-color:#8E8E8E"/>
						<stop  offset="0.8314" style="stop-color:#646464"/>
						<stop  offset="0.9166" style="stop-color:#363636"/>
						<stop  offset="1" style="stop-color:#000000"/>
					</linearGradient>
					<path class="st16" d="M2486.9,61.8c-29.7,10.4-55.3,29.7-79.1,50.3c-18.8-31.3-57.4-49.5-93.5-44
						c-36.1,5.5-67.6,34.3-76.2,69.8c-23.8-17.3-62.6-6.8-74.4,20.2c-50.6-34.5-124.8-30.9-168.9,11.6H2500V58
						C2495.6,59,2491.2,60.3,2486.9,61.8z"/>
				</g>
			</mask>
			<linearGradient id="SVGID_13_" gradientUnits="userSpaceOnUse" x1="2247.4255" y1="57.9775" x2="2247.4255" y2="169.756">
				<stop  offset="2.644230e-03" style="stop-color:#F6DBD9"/>
				<stop  offset="0.8819" style="stop-color:#F6DBD9"/>
				<stop  offset="1" style="stop-color:#F6DBD9"/>
			</linearGradient>
			<path class="st17" d="M2486.9,61.8c-29.7,10.4-55.3,29.7-79.1,50.3c-18.8-31.3-57.4-49.5-93.5-44c-36.1,5.5-67.6,34.3-76.2,69.8
				c-23.8-17.3-62.6-6.8-74.4,20.2c-50.6-34.5-124.8-30.9-168.9,11.6H2500V58C2495.6,59,2491.2,60.3,2486.9,61.8z"/>
		</g>
		<g>
			<g>
				<g>
					<polyline class="st18" points="1586.3,1135.5 1586.3,578 1411,403.8 1314.2,389.1 1214,276.6 1178,268.1 1129,317 
						1081.8,326.4 1030.4,295.8 952.5,311.7 679,591.9 610.5,571.3 466.7,688.8 357.4,701.8 68,878 81,1127.7 1586.3,1135.5 					
						"/>
					<polygon class="st19" points="1030.4,295.8 1043,351.1 989,361 1021,427.8 1057,436.8 1094.5,546 1094.5,452.6 1178,639.1 
						1178,562.3 1213.2,634 1260,682 1250,507.4 1325.7,735.3 1366,722.1 1366,613 1375.9,675.5 1414.5,706.1 1458,691.8 
						1586.3,578 1411,403.8 1314.2,389.1 1214,276.6 1178,268.1 1129,317 1081.8,326.4 					"/>
					<polygon class="st18" points="1178,268.1 1231,381 1242.8,479.6 1193,373.8 1129,317 					"/>
					<polygon class="st20" points="1108.8,321 1157.1,428.1 1169.1,534.6 1129,422.1 1081.8,326.4 					"/>
					<polygon class="st20" points="989,361 721,591.9 827.1,534.6 636,701.8 709,675.5 1030.4,469 737.5,639.1 1021,427.8 					"/>
					<polygon class="st21" points="1030.4,295.8 819,479.6 1003.1,301.3 					"/>
					<polygon class="st20" points="1094.5,546 989,609.6 1089.5,531.4 					"/>
				</g>
				<g>
					<polygon class="st20" points="1068,572.1 971.7,636 1042.8,706.1 1042.8,626.9 1068,607 					"/>
					<g>
						<polygon class="st21" points="769,995 834.6,888.6 864,874.1 889,807.4 917,807.4 917,773.1 942.6,720.6 929.8,692.1 
							942.6,681.6 927,639.1 927,591.9 591.6,818.6 535.7,800 347.8,898.6 355,1135.3 636,1135.3 655.9,1068.6 						"/>
						<polygon class="st19" points="1314.2,751.8 1214,652.8 1129,645 1068,572.1 1068,607 1042.8,626.9 1042.8,706.1 927,591.9 
							927,639.1 942.6,681.6 929.8,692.1 942.6,720.6 917,773.1 917,807.4 889,807.4 864,874.1 834.6,888.6 769,995 655.9,1068.6 
							636,1135.3 1314.2,1135.3 						"/>
					</g>
					<polygon class="st20" points="927,591.9 591.6,818.6 724.3,746.3 667,790.3 850.3,683 813,715 927,639.1 					"/>
					<polygon class="st18" points="929.8,692.1 737.5,829.2 702.9,829.2 630.6,874.1 665.1,834.2 449.5,967.7 605.9,905.4 
						555.6,939.6 591.6,960.5 708.6,912.9 702.9,874.1 743.1,874.1 870.3,794.3 795,829.2 942.6,720.6 					"/>
				</g>
				<g>
					<polygon class="st21" points="989,728.4 1079,839 1015,834.2 989,742 					"/>
					<polygon class="st20" points="989,728.4 1056.3,837.3 1015,834.2 989,742 					"/>
				</g>
				<g>
					<polygon class="st20" points="1090.3,646.3 1090.3,728.4 1106.1,728.4 1098,663.5 					"/>
					<polygon class="st21" points="1103.3,658.3 1090.3,646.3 1098,663.5 1106.1,728.4 1116.3,728.4 					"/>
				</g>
			</g>
			<g>
				<polygon class="st18" points="963,1001.7 1220.9,769.8 1458,691.8 1745.5,436.8 1819.9,452.6 1986.1,626.9 2206.6,699.7 
					2243,748.8 2500,810.3 2500,1135.5 831,1135.5 				"/>
				<polygon class="st19" points="1819.9,452.6 1791.4,479.6 1805.6,534.6 1843,581 1756.1,507.4 1727,516.8 1745.5,570.5 1713,555 
					1745.5,675.5 1941,1137.2 2073.9,1137.2 1973,794.9 1893.4,665 2035,782.9 2183.1,939.4 2500,810.3 2243,748.8 2206.6,699.7 
					1986.1,626.9 				"/>
			</g>
			<g>
				<polygon class="st22" points="1637,701.8 1441,868.3 1254,868.3 999,1085 975.1,1132.3 1864.9,1132.3 1665.5,708.3 				"/>
				<polygon class="st19" points="1864.9,1132.3 1665.5,708.3 1637,701.8 1665.5,818.6 1610.2,769 1610.2,859.8 1562.1,863.6 
					1536,912.9 1493,924.3 1458,1134.8 				"/>
				<polygon class="st21" points="1125.2,1132.3 1610.2,769 1610.2,859.8 1562.1,863.6 1205,1132.3 				"/>
				<polygon class="st20" points="1493,924.3 1482.3,988.5 1314.2,1135.3 1205,1132.3 1562.1,863.6 1536,912.9 				"/>
			</g>
		</g>
		<defs>
			<filter id="Adobe_OpacityMaskFilter_8_" filterUnits="userSpaceOnUse" x="0" y="150.2" width="1039.9" height="378.8">
				<feFlood  style="flood-color:white;flood-opacity:1" result="back"/>
				<feBlend  in="SourceGraphic" in2="back" mode="normal"/>
			</filter>
		</defs>
		<mask maskUnits="userSpaceOnUse" x="0" y="150.2" width="1039.9" height="378.8" id="SVGID_14_">
			<g class="st23">
				<defs>
					<filter id="Adobe_OpacityMaskFilter_9_" filterUnits="userSpaceOnUse" x="0" y="150.2" width="1039.9" height="378.8">
						<feFlood  style="flood-color:white;flood-opacity:1" result="back"/>
						<feBlend  in="SourceGraphic" in2="back" mode="normal"/>
					</filter>
				</defs>
				<mask maskUnits="userSpaceOnUse" x="0" y="150.2" width="1039.9" height="378.8" id="SVGID_14_">
					<g class="st24">
					</g>
				</mask>
				<linearGradient id="SVGID_15_" gradientUnits="userSpaceOnUse" x1="519.9547" y1="150.1969" x2="519.9547" y2="529">
					<stop  offset="2.644230e-03" style="stop-color:#FFFFFF"/>
					<stop  offset="0.1919" style="stop-color:#FCFCFC"/>
					<stop  offset="0.3249" style="stop-color:#F3F3F3"/>
					<stop  offset="0.4408" style="stop-color:#E3E3E3"/>
					<stop  offset="0.547" style="stop-color:#CDCDCD"/>
					<stop  offset="0.6464" style="stop-color:#B1B1B1"/>
					<stop  offset="0.7408" style="stop-color:#8E8E8E"/>
					<stop  offset="0.8314" style="stop-color:#646464"/>
					<stop  offset="0.9166" style="stop-color:#363636"/>
					<stop  offset="1" style="stop-color:#000000"/>
				</linearGradient>
				<path class="st25" d="M814.6,503.4c-10.8-19.3-45.3-16.2-52.4,4.8c-5.7-39.5-58.8-62.8-91.7-40.3c-2.7-44.9-46.2-83.2-91.1-80.2
					c-44.9,3-82.8,46.9-79.4,91.7c-12.3-16.8-32.5-27.5-53.3-28.4c32.5-26.1,36-81,6.9-110.9c-29-29.9-84-28.1-111,3.7
					c4.7-22.8-7.4-48.1-28.1-58.8s-48.3-5.9-64.2,11.1c26.2-58.4-26.3-127.7-88.4-143.2C109.2,139.8,54.5,177.4,0,189.1V529h1039.9
					C988.4,477.6,869.8,456.1,814.6,503.4z"/>
			</g>
		</mask>
		<linearGradient id="SVGID_16_" gradientUnits="userSpaceOnUse" x1="519.9547" y1="150.1969" x2="519.9547" y2="529">
			<stop  offset="2.644230e-03" style="stop-color:#F6DBD9"/>
			<stop  offset="0.8819" style="stop-color:#F6DBD9"/>
			<stop  offset="1" style="stop-color:#F6DBD9"/>
		</linearGradient>
		<path class="st26" d="M814.6,503.4c-10.8-19.3-45.3-16.2-52.4,4.8c-5.7-39.5-58.8-62.8-91.7-40.3c-2.7-44.9-46.2-83.2-91.1-80.2
			c-44.9,3-82.8,46.9-79.4,91.7c-12.3-16.8-32.5-27.5-53.3-28.4c32.5-26.1,36-81,6.9-110.9c-29-29.9-84-28.1-111,3.7
			c4.7-22.8-7.4-48.1-28.1-58.8s-48.3-5.9-64.2,11.1c26.2-58.4-26.3-127.7-88.4-143.2C109.2,139.8,54.5,177.4,0,189.1V529h1039.9
			C988.4,477.6,869.8,456.1,814.6,503.4z"/>
		<g>
			<polygon class="st27" points="2500,675.5 2389.9,772.8 2230.9,847 1906.9,800 1696.9,933.4 1610.2,923.5 1490.3,947.9 
				1345.8,859.8 1203.1,933.4 963,911.7 630.6,1051.5 389,874.1 204.8,917.8 0,868.3 0,1135.3 2500,1135.3 			"/>
			<g>
				<path class="st28" d="M1378,991l-113.6,77.6l345.8-145l-119.9,24.4l-144.5-88.1l44.6,74.3C1402,953.4,1396.5,978.3,1378,991z"/>
				<g>
					<polygon class="st29" points="1621,975.2 1512.5,1068.6 1451,1085 1586.3,975.2 					"/>
					<polygon class="st29" points="1621,1037.1 1682,964.2 1660,1030.1 					"/>
					<polygon class="st29" points="1068,960.5 1131.5,1016.5 1149.5,1016.5 1118,964.2 					"/>
				</g>
				<polygon class="st29" points="1028.2,1057.9 963,1001.7 902.4,989.2 963,911.7 630.6,1051.5 389,874.1 204.8,917.8 0,868.3 
					0,1135.3 1242.8,1135.3 1089.8,1057.9 				"/>
				<g>
					<polygon class="st29" points="2500,675.5 2389.9,772.8 2230.9,847 1906.9,800 1903,906.2 1796,956 1742,1051.5 1557.2,1135.3 
						2500,1135.3 					"/>
				</g>
			</g>
		</g>
		<path class="st30" d="M647.2,1120.9c-4.2-66.9,0-134.3,12.4-200.1c-0.7,27.3,5.4,56.9,15.1,82.4c7.1-61.7,21.8-114.9,40.8-174
			c-0.9,64.7,1.6,135.4,6.8,199.9c2.7-26.4,10.9-58.7,18.6-84.1c3.3,21.3,6.6,46.7,9.9,68.1c9.5-49.3,21.2-94.7,30.7-144
			c6,44.7,14.5,117.1,20.5,161.8c1.1-17.2,6.2-24.1,13.1-39.9c3.8,18,7.6,40.1,11.4,58.1c13.4-26.6,24.2-55,30.6-84.1
			c4.7,27.3,9.3,62.7,13.9,90c7.3-17.8,14.9-35.5,19.5-54.2c7.4,28,15.5,60.1,22.8,88.1c2.4-21.4,4.8-48.6,7.2-70
			c10.4,24.8,21.6,51.5,32,76.3C854.3,1107.6,746.1,1124.3,647.2,1120.9z"/>
		<path class="st30" d="M164.5,771.2c-6.3,18.3-13.9,41.6-20.3,59.9c-2.1-26.3-4.1-55.7-6.2-82.1c-2.6,19.4-5.7,37.4-11.7,55.9
			c-3.6-25-6.2-52.9-9.8-77.8c-4.3,22.3-9.9,40.5-14.2,62.9c-1.2-40.4-5-82-9.6-122.1c-3.8,30.4-10.6,62.9-14.4,93.3
			C72,739,68,712.1,67.1,689c-4.9,22.7-11.6,46.3-16.5,69c-3.1-53.9-3.3-112.2-1-166.1c-10.3,35.8-22.7,73.5-33,109.2
			c-2.3-26.5-7.9-52.7-16.6-77.8v224c56.3,1.1,112.7,6.7,167.3,17.6C166.2,834,165.5,802.2,164.5,771.2z"/>
		<path class="st30" d="M1869.6,1070.1c-6-26.6-12.7-53-20.1-79.2c-5.9,20.8-9.6,42.2-11.1,63.7c-4.3-34.3-11.1-68.2-20.3-101.4
			c-0.1,24.4-4.1,45.7-8.1,69.8c-1.7-16.9-3.5-33.9-5.2-50.8c-7.4,21.9-12,44.7-13.7,67.8c-5.8-25.5-11.5-51.1-17.3-76.6
			c-3.6,28.1-4.5,56.6-2.8,84.9c-2.4-11.1-4.8-22.2-7.2-33.4c-6.7,17.4-10.3,36.1-10.6,54.8c-6.6-23.8-13.2-47.6-19.8-71.5
			c0.8,28.5,1.6,57,2.4,85.5c-4.6-17.4-9.2-34.9-13.8-52.3c0.6,19.1,1.2,38.3,1.8,57.4c-3.5-6.8-7.1-13.7-10.6-20.5
			c0.1,17.7,2,35.4,5.8,52.8C1770.6,1122.2,1830.3,1103.6,1869.6,1070.1z"/>
		<g>
			<path class="st30" d="M2482.9,795.3c-1.7-11.8-3.5-23.6-5.2-35.3c-6.2,13-9.1,27.4-8.5,41.8c-0.9-15.5-5-30.8-12-44.7
				c-5.8,13.3-11.6,26.7-17.4,40c-3.2-13.1-6.5-26.1-9.7-39.2c-5,11.4-7.6,23.8-7.4,36.3c-2.1-24.6-7.4-49-15.8-72.3
				c-4.7,28.7-9.5,57.4-14.2,86.2c-4-15.2-7.9-30.5-11.9-45.7c-9.7,12.8-14.9,29-14.7,45.1c-5.8-28.8-11.5-57.7-17.3-86.5
				c-2.2,33.3-4.4,66.5-6.7,99.8c-3.1-11.4-6.2-22.8-9.2-34.2c-6,11.9-8.6,25.5-7.3,38.8c-2.5-11.8-5-23.6-7.5-35.4
				c-2,17.3-4,34.6-6,51.9c-4.5-45.7-12.4-91.1-23.4-135.7c-4.7,46.2-9.4,92.4-14.1,138.6c-4.3-23.9-8.6-47.9-12.9-71.8
				c-6.3,33.9-12.5,67.8-18.8,101.7c-4.7-24.3-9.4-48.6-14.1-72.9c-2.4,29.4-4.9,58.9-7.3,88.3c-4.4-16.3-8.9-32.7-13.3-49
				c-0.5,24.5-2.6,50-3.1,74.5c-5.7-16.3-11.5-32.7-17.2-49c-0.6,13.3-1.2,26.6-1.7,39.9c-5.4-13.4-10.8-26.8-16.3-40.3
				c0.4,19.8,0.8,39.7,1.2,59.5c-4.6-15.2-9.1-30.3-13.7-45.5c0.8,15-8.9,34.8-0.1,49.3c5,8.3,16.2,9.8,25.8,9.9
				c38.4,0.3,76.2-8.2,113.7-16.7c67.7-15.3,135.5-30.6,203.2-45.9V747.4C2492.6,762.7,2486.9,778.8,2482.9,795.3z"/>
		</g>
		<g>
			<rect y="1135.3" class="st18" width="2500" height="464.7"/>
			<rect y="1135.5" class="st19" width="2500" height="9.1"/>
			<g>
				<path class="st19" d="M1057,1290c17.5-1.2,35-1.9,52.5-2.3c8.8-0.3,17.5-0.3,26.3-0.5l26.3-0.2c17.5,0,35,0.2,52.5,0.7
					c17.5,0.4,35,1.1,52.5,2.3c-17.5,1.2-35,1.9-52.5,2.3c-17.5,0.4-35,0.7-52.5,0.7l-26.3-0.2c-8.8-0.2-17.5-0.2-26.3-0.5
					C1092,1291.9,1074.5,1291.2,1057,1290z"/>
				<path class="st19" d="M1213,1310c12.8-1.2,25.5-1.9,38.3-2.3c6.4-0.3,12.8-0.3,19.1-0.5c6.4-0.1,12.8-0.1,19.1-0.2
					c12.8,0,25.5,0.2,38.3,0.7c12.8,0.4,25.5,1.1,38.3,2.3c-12.8,1.2-25.5,1.9-38.3,2.3c-12.8,0.4-25.5,0.7-38.3,0.7
					c-6.4-0.1-12.8-0.1-19.1-0.2c-6.4-0.2-12.8-0.2-19.1-0.5C1238.5,1311.9,1225.8,1311.2,1213,1310z"/>
				<path class="st19" d="M1315,1253c13.2-1.2,26.4-1.9,39.6-2.3c6.6-0.3,13.2-0.3,19.8-0.5c6.6-0.1,13.2-0.1,19.8-0.2
					c13.2,0,26.4,0.2,39.6,0.7c13.2,0.4,26.4,1.1,39.6,2.3c-13.2,1.2-26.4,1.9-39.6,2.3c-13.2,0.4-26.4,0.7-39.6,0.7
					c-6.6-0.1-13.2-0.1-19.8-0.2c-6.6-0.2-13.2-0.2-19.8-0.5C1341.4,1254.9,1328.2,1254.2,1315,1253z"/>
				<path class="st19" d="M1270,1226c7.4-1.2,14.7-1.9,22.1-2.4c7.4-0.4,14.7-0.6,22.1-0.6c7.4,0,14.7,0.2,22.1,0.6
					c7.4,0.5,14.7,1.1,22.1,2.4c-7.4,1.2-14.7,1.9-22.1,2.4c-7.4,0.4-14.7,0.6-22.1,0.6c-7.4,0-14.7-0.2-22.1-0.6
					C1284.7,1227.9,1277.4,1227.2,1270,1226z"/>
				<path class="st19" d="M1441,1207c8.7-1.2,17.3-1.9,26-2.4c8.7-0.4,17.3-0.6,26-0.6c8.7,0,17.3,0.2,26,0.6
					c8.7,0.5,17.3,1.1,26,2.4c-8.7,1.2-17.3,1.9-26,2.4c-8.7,0.4-17.3,0.6-26,0.6c-8.7,0-17.3-0.2-26-0.6
					C1458.3,1208.9,1449.7,1208.2,1441,1207z"/>
				<path class="st19" d="M1538,1250c4-1.2,8-1.9,12.1-2.4c4-0.4,8-0.6,12.1-0.6c4,0,8,0.2,12.1,0.6c4,0.5,8,1.1,12.1,2.4
					c-4,1.3-8,1.9-12.1,2.4c-4,0.4-8,0.6-12.1,0.6c-4,0-8-0.2-12.1-0.6C1546,1251.9,1542,1251.2,1538,1250z"/>
				<path class="st19" d="M1458,1327c9.1-1.2,18.2-1.9,27.3-2.4c9.1-0.4,18.2-0.6,27.3-0.6c9.1,0,18.2,0.2,27.3,0.6
					c9.1,0.5,18.2,1.1,27.3,2.4c-9.1,1.2-18.2,1.9-27.3,2.4c-9.1,0.4-18.2,0.6-27.3,0.6c-9.1,0-18.2-0.2-27.3-0.6
					C1476.2,1328.9,1467.1,1328.2,1458,1327z"/>
				<path class="st19" d="M1397,1376c13.5-1.2,27-1.9,40.5-2.3c6.8-0.3,13.5-0.3,20.3-0.5l20.3-0.2c13.5,0,27,0.2,40.5,0.7
					c13.5,0.4,27,1.1,40.5,2.3c-13.5,1.2-27,1.9-40.5,2.3c-13.5,0.4-27,0.7-40.5,0.7l-20.3-0.2c-6.8-0.2-13.5-0.2-20.3-0.5
					C1424,1377.9,1410.5,1377.2,1397,1376z"/>
				<path class="st19" d="M1400,1419c-14.1,1.2-28.2,1.9-42.3,2.3c-7,0.3-14.1,0.3-21.1,0.5l-21.1,0.2c-14.1,0-28.2-0.2-42.3-0.7
					c-14.1-0.4-28.2-1.1-42.3-2.3c14.1-1.2,28.2-1.9,42.3-2.3c14.1-0.4,28.2-0.7,42.3-0.7l21.1,0.2c7,0.2,14.1,0.2,21.1,0.5
					C1371.8,1417.1,1385.9,1417.8,1400,1419z"/>
				<path class="st19" d="M1168,1359c-12.3,1.2-24.5,1.9-36.8,2.4c-12.3,0.4-24.5,0.6-36.8,0.6c-12.3,0-24.5-0.2-36.8-0.6
					c-12.3-0.5-24.5-1.1-36.8-2.4c12.3-1.2,24.5-1.9,36.8-2.4c12.3-0.4,24.5-0.6,36.8-0.6c12.3,0,24.5,0.2,36.8,0.6
					C1143.5,1357.1,1155.7,1357.8,1168,1359z"/>
				<path class="st19" d="M697,1359c10.4-1.2,20.8-1.9,31.3-2.4c10.4-0.4,20.8-0.6,31.3-0.6c10.4,0,20.8,0.2,31.3,0.6
					c10.4,0.5,20.8,1.1,31.3,2.4c-10.4,1.2-20.8,1.9-31.3,2.4c-10.4,0.4-20.8,0.6-31.3,0.6c-10.4,0-20.8-0.2-31.3-0.6
					C717.8,1360.9,707.4,1360.2,697,1359z"/>
				<path class="st19" d="M829,1317c5.8-1.2,11.7-1.9,17.5-2.4c5.8-0.4,11.7-0.6,17.5-0.6c5.8,0,11.7,0.2,17.5,0.6
					c5.8,0.5,11.7,1.1,17.5,2.4c-5.8,1.3-11.7,1.9-17.5,2.4c-5.8,0.4-11.7,0.6-17.5,0.6c-5.8,0-11.7-0.2-17.5-0.6
					C840.7,1318.9,834.8,1318.2,829,1317z"/>
				<path class="st19" d="M927,1268c6-1.2,12-1.9,18-2.4c6-0.4,12-0.6,18-0.6c6,0,12,0.2,18,0.6c6,0.5,12,1.1,18,2.4
					c-6,1.3-12,1.9-18,2.4c-6,0.4-12,0.6-18,0.6c-6,0-12-0.2-18-0.6C939,1269.9,933,1269.2,927,1268z"/>
				<path class="st19" d="M1129,1256c4.1-1.2,8.2-1.9,12.3-2.4c4.1-0.4,8.2-0.6,12.3-0.6c4.1,0,8.2,0.2,12.3,0.6
					c4.1,0.5,8.2,1.1,12.3,2.4c-4.1,1.3-8.2,1.9-12.3,2.4c-4.1,0.4-8.2,0.6-12.3,0.6c-4.1,0-8.2-0.2-12.3-0.6
					C1137.2,1257.9,1133.1,1257.2,1129,1256z"/>
				<path class="st19" d="M1254,1164c6.6-1.2,13.2-1.9,19.8-2.4c6.6-0.4,13.2-0.6,19.8-0.6c6.6,0,13.2,0.2,19.8,0.6
					c6.6,0.5,13.2,1.1,19.8,2.4c-6.6,1.2-13.2,1.9-19.8,2.4c-6.6,0.4-13.2,0.6-19.8,0.6c-6.6,0-13.2-0.2-19.8-0.6
					C1267.2,1165.9,1260.6,1165.2,1254,1164z"/>
				<path class="st19" d="M1411,1166c5.1-1.2,10.2-1.9,15.3-2.4c5.1-0.4,10.2-0.6,15.3-0.6c5.1,0,10.2,0.2,15.3,0.6
					c5.1,0.5,10.2,1.1,15.3,2.4c-5.1,1.3-10.2,1.9-15.3,2.4c-5.1,0.4-10.2,0.6-15.3,0.6c-5.1,0-10.2-0.2-15.3-0.6
					C1421.2,1167.9,1416.1,1167.2,1411,1166z"/>
				<path class="st19" d="M1682,1297c14-1.2,28.1-1.9,42.1-2.3c7-0.3,14-0.3,21.1-0.5l21.1-0.2c14,0,28.1,0.2,42.1,0.7
					c14,0.4,28.1,1.1,42.1,2.3c-14,1.2-28.1,1.9-42.1,2.3c-14,0.4-28.1,0.7-42.1,0.7l-21.1-0.2c-7-0.2-14-0.2-21.1-0.5
					C1710.1,1298.9,1696,1298.2,1682,1297z"/>
				<path class="st19" d="M1843,1340c11.9-1.2,23.8-1.9,35.8-2.4c11.9-0.4,23.8-0.6,35.8-0.6c11.9,0,23.8,0.2,35.8,0.6
					c11.9,0.5,23.8,1.1,35.8,2.4c-11.9,1.2-23.8,1.9-35.8,2.4c-11.9,0.4-23.8,0.6-35.8,0.6c-11.9,0-23.8-0.2-35.8-0.6
					C1866.8,1341.9,1854.9,1341.2,1843,1340z"/>
				<path class="st19" d="M1903,1269c3-1.2,6-1.9,9-2.4c3-0.4,6-0.6,9-0.6c3,0,6,0.2,9,0.6c3,0.5,6,1.1,9,2.4c-3,1.3-6,1.9-9,2.4
					c-3,0.4-6,0.6-9,0.6c-3,0-6-0.2-9-0.6C1909,1270.9,1906,1270.2,1903,1269z"/>
				<path class="st19" d="M2035,1321c8.8-1.2,17.7-1.9,26.5-2.4c8.8-0.4,17.7-0.6,26.5-0.6c8.8,0,17.7,0.2,26.5,0.6
					c8.8,0.5,17.7,1.1,26.5,2.4c-8.8,1.2-17.7,1.9-26.5,2.4c-8.8,0.4-17.7,0.6-26.5,0.6c-8.8,0-17.7-0.2-26.5-0.6
					C2052.7,1322.9,2043.8,1322.2,2035,1321z"/>
				<path class="st19" d="M1713,1235c5.4-1.2,10.8-1.9,16.3-2.4c5.4-0.4,10.8-0.6,16.3-0.6c5.4,0,10.8,0.2,16.3,0.6
					c5.4,0.5,10.8,1.1,16.3,2.4c-5.4,1.3-10.8,1.9-16.3,2.4c-5.4,0.4-10.8,0.6-16.3,0.6c-5.4,0-10.8-0.2-16.3-0.6
					C1723.8,1236.9,1718.4,1236.2,1713,1235z"/>
				<path class="st19" d="M368.1,1407.6c10-1.2,20-1.9,30-2.4c10-0.4,20-0.6,30-0.6c10,0,20,0.2,30,0.6c10,0.5,20,1.1,30,2.4
					c-10,1.2-20,1.9-30,2.4c-10,0.4-20,0.6-30,0.6c-10,0-20-0.2-30-0.6C388.1,1409.4,378.1,1408.8,368.1,1407.6z"/>
				<path class="st19" d="M581.1,1412.1c4.1-1.2,8.3-1.9,12.4-2.4c4.1-0.4,8.3-0.6,12.4-0.6c4.1,0,8.3,0.2,12.4,0.6
					c4.1,0.5,8.3,1.1,12.4,2.4c-4.1,1.3-8.3,1.9-12.4,2.4c-4.1,0.4-8.3,0.6-12.4,0.6c-4.1,0-8.3-0.2-12.4-0.6
					C589.4,1413.9,585.3,1413.3,581.1,1412.1z"/>
			</g>
		</g>
		<g>
			<g class="st31">
				<path class="st32" d="M0,1057.9c54.3,2.1,118.8,3,174,2.3c23.4-0.3,54,16.2,78.2,20.6l255.3,0.8c14.3,0,28.9,3.9,42,11
					l25.2,13.7l54.5,11.3c17.6,3.6,28.6,20.3,22.3,33.6l-3.4,7.1l136.4,27.7l126.3,11.4c17,1.5,32.6,10.1,41.4,22.6h0l158.5,3.2
					c4.5,0.1,8.9-1.1,12.4-3.3l0,0c3.5-2.2,7.9-3.4,12.5-3.3l68.5,1.3c12.6,0.2,20.8,11.1,14.8,19.7c-35.5,51.2-98,89.8-168.7,93.5
					c-60.8,50-171.4,55.3-252.3,19.4c-29.6,23.5-81.5,26.1-121.6,6.6c-45,79.9-159.8,117.4-269.8,92.4
					c-53.9,56.4-175.5,76.2-271.3,55.7L0,1057.9z"/>
				<path class="st33" d="M1050.2,1331.2c-60.8,50-171.4,55.3-252.3,19.4c-29.6,23.5-81.5,26.1-121.6,6.6
					c-45,79.9-159.8,117.4-269.8,92.4c-53.9,56.4-175.5,76.2-271.3,55.7l-36.6-121.2c5.6-5.1,12.8-8.9,19.3-13.2
					c8.2-5.5,15.7-12.7,16.6-23.3c0.8-8.9-3.2-19-6-28.7c-2.8-9.8-4.2-20.5,1.2-26.9c6.5-7.8,20.2-6.7,32-7
					c26.4-0.7,50-10.6,65.8-27.9c7-7.6,13.6-17.2,25.5-17.7c9.4-0.4,19.6,5.1,29.5,7.5c23.7,5.7,44-4.3,61.7-15.2
					c16-9.9,32.2-19.9,48.6-30c9.8-6.1,20.9-12.4,34.2-10c10.5,1.9,20.4,9,30.9,11c9.9,1.8,19-1.2,27.1-5.1
					c14.4-6.9,27-16.5,41.3-24c14.4-7.6,31.2-13,49.3-10.5c10.2,1.4,21.5,6.2,26.6,15.2c5.2,9.2,2.3,19.4-1.8,27.6
					c-10.2,20.4-27.2,36.6-47.9,46.7c-20.6,10-47.6,7.9-65.9,20c-26,17.2-23.5,56-43.4,77.5c-27.4,29.7-88.6,18.7-115.7,46.5
					c-13.7,14-17.6,36.8-37.5,43c-12,3.7-27.5,0.3-39.5,3.7c-13.6,3.9-20.3,15.9-27.7,26.2c-6.5,9-15.5,17.5-28.3,17.8
					c-1.8-0.1-3.5-0.2-5.3-0.3c1.8,0.3,3.6,0.4,5.3,0.3c71.7,3.9,141.8-16.4,186.9-59.8c56.3,18,115.8,17.3,166.6,3
					c52-14.7,96-46.9,123.1-91.3c41.5,17.8,92.7,18.4,128.1-0.7c42,14.9,86.2,23.9,130,22.8c44.3-1.1,88.4-14,120.2-40.5
					c77.9-1.3,147.9-60.6,164-75.3C1176.9,1292.8,1117.3,1327.7,1050.2,1331.2z"/>
				<path class="st34" d="M1218.9,1237.7c-0.2-1.5-0.6-3.1-1.3-4.5c-2.6-5.3-8.4-9.1-14.7-11.1c-6.2-2-12.9-2.3-19.5-2.2
					c-16.4,0.1-33.2,2.3-46.5,10c-5.9,3.4-11.1,7.9-17.8,9.9c-9.6,2.9-20.4,0.4-30.3-2.5c-16.3-4.7-34.2-10.4-49.2-4.5
					c-7.9,3.1-13.9,9.1-22,11.8c-10.5,3.5-22.8,0.7-33.7-3.2c-10.9-3.9-25.1-9.3-36.5-10.6c-11.7,19.7-31.4,34.3-54.4,41.9
					c14-7.1,26.4-16.8,36.3-28.5c3.1-3.7,6.1-8,5.7-12.9c-0.7-7.5-9.1-13.2-17.1-15.8c-12.4-4.1-26-3.9-37.3,0.5
					c-7.9,3.1-14.8,8.1-23.4,9.3c-13.6,1.8-27.3-6.4-39.3-14.2c-12-7.8-25.9-15.9-39.3-13.6c-8.6,1.4-15.1,7-23.1,9.5
					c-12.2,3.8-26.7,0.1-39.2-6c-12.5-6.1-23.8-14.5-35.9-21.3c-12.2-6.8-24.5-13.2-37.4-11.9c-11,17.3-24.3,32.6-39.9,45.4
					c10.5-12.4,18.2-27.2,22.6-43.5c1.9-7.1,3.2-14.9,0.3-22.5c-4.5-11.9-18.2-19.9-30.9-22c-11.4-1.9-23.4-0.4-34-6.2
					c-7.5-4.1-12.9-11.2-19.6-16.5c-14.6-11.7-21.3-19.6-35.2-11.8c-19.7,11-39.4,22-61.5,27.8c-22,5.7-47,5.9-70.5-4
					c-18.5-7.8-36.4-21.8-55-22.9c-27.7-1.6-41.8,25.6-66.9,30.7c-33.3,6.7-74.7-27.2-108.6-22.9c-23.3,3-36,23.3-56.4,30.9
					c-19.4,7.2-43.3,2.4-67.3-5.7L0,1057.9c54.3,2.1,118.8,3,174,2.3c23.4-0.3,54,16.2,78.2,20.6l255.3,0.8c14.3,0,28.9,3.9,42,11
					l25.2,13.7l54.5,11.3c17.6,3.6,28.6,20.3,22.3,33.6l-3.4,7.1l136.4,27.7l126.3,11.4c17,1.5,32.6,10.1,41.4,22.6l158.5,3.2
					c4.5,0.1,8.9-1.1,12.4-3.3c3.5-2.2,7.9-3.4,12.5-3.3l68.5,1.3C1216.7,1218.3,1224.9,1229.1,1218.9,1237.7z"/>
			</g>
			<g class="st35">
				<path class="st28" d="M795.6,1304.3c7.3,5.5,16.6,9.5,25.5,7.3c7.3-1.8,13.3-7.5,20.8-8.7c6.4-1,13.3,1.8,17.2,7
					c2.8,3.7,3.9,8.6,3.3,13.2c-8.5,9.4-19.6,16.7-32,18.4c-18.7,2.5-36.9-7.9-51-20.4c-14.1-12.6-26.7-29.5-41.8-43h22.7
					c5.3,2,10.3,4.8,14.8,8.2C782.3,1291.7,788.3,1298.8,795.6,1304.3z"/>
				<path class="st29" d="M833.3,1288.2c-14.1-0.6-27.6-5-40.8-10.2h84.3l-7.8,3C858.3,1286.9,845.5,1288.7,833.3,1288.2z"/>
				<path class="st27" d="M865.6,1319.3c-1,1.3-2.1,2.5-3.2,3.8c0.6-4.6-0.5-9.4-3.3-13.2c-3.9-5.2-10.8-8.1-17.2-7
					c-7.5,1.2-13.5,6.9-20.8,8.7c-8.9,2.2-18.2-1.8-25.5-7.3c-7.3-5.5-13.3-12.6-20.6-18.1c-4.5-3.4-9.5-6.2-14.8-8.2h32.2
					c13.2,5.2,26.7,9.6,40.8,10.2c12.2,0.5,25-1.3,35.7-7.2l7.8-3H889C883.3,1291,874.4,1308.2,865.6,1319.3z"/>
			</g>
			<g class="st35">
				<path class="st28" d="M647,1376H389c19.4,32.6,40.2,69.3,72.8,88.7c10.4,6.2,22.6,10.8,34.6,8.5c12.8-2.5,22.8-12.5,30.8-22.9
					c4.6-6.1,8.9-12.5,13.8-18.4c5.4-6.5,14.6-8.2,22-4.1c6,3.4,12.6,5.6,19.3,5.3c6.7-0.3,12.9-3.8,18.4-7.7
					C617.3,1413.6,634.7,1392.3,647,1376z"/>
				<g>
					<path class="st29" d="M539.6,1384.1c-13.6-1.6-27.4-3.2-41-1.5c-12.2,1.5-24.2,5.6-36.4,4.9c-11.7-0.7-22.6-5.7-33-11.4h179.6
						c-8.3,5.5-18.3,8.6-28.2,9.7C567,1387.3,553.2,1385.7,539.6,1384.1z"/>
					<path class="st27" d="M637,1388.8c-11.1,5.6-22.3,10.9-34.1,14.6c-13.9,4.3-28.9,6.2-43.1,3.2c-14.5-3.1-28.6-11.2-43.2-8.5
						c-19.5,3.6-30.8,24.9-49.3,32c-10.1,3.9-21.6,3.1-31.9-0.1c-5.8-1.8-11.2-4.3-16.6-7c-10.9-15-20.5-31.4-29.7-46.9h40.2
						c10.4,5.7,21.2,10.7,33,11.4c12.3,0.7,24.2-3.4,36.4-4.9c13.6-1.7,27.4-0.1,41,1.5c13.6,1.6,27.4,3.2,41,1.6
						c10-1.2,19.9-4.2,28.2-9.7H647C643.9,1380,640.6,1384.4,637,1388.8z"/>
				</g>
			</g>
		</g>
		<g class="st35">
			<path class="st32" d="M2500,1051.5c-54.9,1-123.8,1.9-178.8,2.9c-10.3,0.2-20.8,0.4-30.2,4.5c-9.4,4.1-17.3,13-16.7,22.9
				c0.4,6,3.7,12.3,1.1,17.8c-3.1,6.6-12.2,7.5-19.7,7.5c-32.7-0.4-78.3-2.3-115.5-3c-10.3-0.2-17.1,10.3-12.5,19.2l2.8,5.3h-126.7
				c-6.3,0-10.5,6.3-7.9,11.9l7,14.8h-165.4c-9.8,0-15.4,10.8-9.6,18.4l21.8,28.5h-287.8c26.9,65.2,115.3,113.9,186.8,102.6
				c2.7,29.6,36.8,52.4,66.3,44.5c9.1,57,52.7,107.6,109,126.5c56.3,18.9,122.9,5.2,166.4-34.1c23.7,43.9,88.8,60.8,132.1,34.2
				c58.4,80.6,176.9,125.2,277.5,110.4V1051.5z"/>
			<path class="st33" d="M2222.5,1475.8c-43.2,26.6-108.3,9.7-132.1-34.2c-43.6,39.3-110.1,53-166.4,34.1
				c-56.3-18.9-99.9-69.5-109-126.5c-29.6,7.9-63.6-14.9-66.3-44.5c-71.5,11.3-160-37.5-186.8-102.6c20,30.6,52.8,56.1,86.6,71.4
				c33.9,15.3,72.3,21,109.3,16.1c2.9,13.4,13.2,26.5,24.6,34.5s26,11.7,40,10.2c11.9,53.5,56.7,99.1,109.8,117.9
				c53.1,18.8,115.8,9.3,160.5-24.1c13.2,20.4,39.4,32.3,64,35.9c24.6,3.6,50.6-3.7,69.4-19.4c-18.5-13-26.4-39-32.1-60.5
				c-3.6-13.8-8.8-30.8-18.7-41.8c-10-11.1-30.7-16.5-45.2-17.7c-4.4-0.4-8.9-0.4-13-1.8c-4.1-1.4-8-4.6-8.6-8.8
				c-0.5-3.5,1.3-7.1,4-9.5c2.7-2.4,6.2-3.8,9.7-4.8c31.9-9.6,69,1.2,92.2,23.1c11.1,10.5,20.3,23.7,34.3,30.2
				c14.1,6.4,35.4,1.2,37.4-13.7c2.1-15.9-17.2-25.1-31.1-33.9c-14.5-9.2-26.3-23.6-28.5-40.3c-2.2-16.7,7-35,23.3-40.8
				c19.9-7.1,41.7,5.8,55.6,21.4c13.8,15.6,24.1,34.7,41.4,46.6c14.5,9.9,32.4,13.7,49.1,19.6s33.6,15.5,40.1,31.5
				c6.6,16.3,0.6,34.5-3.4,51.6c-4,17.1-5,37.6,8.3,49.4c13.2,11.7,33.5,9.2,51.1,12.2c2.7,0.5,5.4,1,8,1.8v127.9
				C2399.4,1601,2280.9,1556.4,2222.5,1475.8z"/>
			<path class="st34" d="M2468.3,1180.4c-5-8.2-7.6-17.5-11.6-26.2c-4-8.7-9.9-17.3-19-21c-10.1-4.2-21.8-1.7-32.5-4.2
				c-12.5-2.9-22.3-12.3-30.3-22c-8-9.7-15.3-20.4-25.7-27.7c-10.4-7.3-25-8.8-36.9-3.9c-8.2,3.4-14.5,10.8-16.3,19.3
				c-1.8,8.5,1,17.7,7.2,23.9c3.4,3.4,8.2,6.8,7.8,11.5c-0.5,5.9-8.5,8.1-14.6,7.1c-18.2-3-32.1-20.1-50.5-20.6
				c-19.1-0.5-35.4,17.3-54.4,15.3c-10.5-1.1-21-8.3-30.9-4.4c-9.2,3.6-12.2,15.5-8.9,24.5c3.3,9,9.7,17,17.1,23.3
				c-13.6-4.6-25.7-18.6-34.8-29.4c-3-3.6-8.6-3.9-13.1-2.6s-8.5,4-13,5.5c-19.5,6.7-41.1-9.2-61-4c-6.6,1.7-13,6.5-13.8,13.1
				c-0.7,5.7,2.9,11,6.4,15.6c28,36.3,68.8,66.6,112.3,83.3c-55.7-9-111.6-39.6-144.9-83.9c-11.8,8.3-28,6.6-42.3,3.7
				c-14.3-2.9-29.6-6.6-43.1-1.3c-9.2,3.6-16.5,10.9-26,13.5c-13.6,3.7-28.6-0.8-40.9-7.5c33.7,61.8,107.1,101.6,179,95.4
				c8.9,15.5,23.7,28.8,41.5,33.1c-17.8,3.8-42.9-5.5-52.1-20.7c-37.4,6.6-129-7.7-162.6-66.7c-9.6-5.7-22.1-3.3-32.3,1.3
				s-19.5,11.2-30.4,14c-35.2,9.1-69.1-24.4-105.4-21.2c-14.9,1.3-29.5,8.8-44.2,6.2c-14.1-2.5-25.6-13.9-37.9-20.8h239.4
				l-21.8-28.5c-5.8-7.6-0.2-18.4,9.6-18.4h165.4l-7-14.8c-2.6-5.6,1.6-11.9,7.9-11.9h126.7l-2.8-5.3c-4.6-8.9,2.2-19.4,12.5-19.2
				c37.2,0.7,82.8,2.6,115.5,3c7.5,0.1,16.7-0.8,19.7-7.5c2.5-5.5-0.8-11.7-1.1-17.8c-0.6-9.9,7.3-18.8,16.7-22.9
				c9.4-4.1,19.9-4.3,30.2-4.5c54.9-1,123.8-1.9,178.8-2.9v151.9C2487,1199.8,2475.2,1191.7,2468.3,1180.4z"/>
		</g>
		<g>
			<path class="st32" d="M2500,1362.6c-54.9-1-123.8-2-178.8-3c-10.3-0.2-20.8-0.4-30.2-4.6s-17.3-13.4-16.7-23.6
				c0.4-6.2,3.7-12.7,1.1-18.3c-3.1-6.9-12.2-7.8-19.7-7.7c-32.7,0.4-78.3,2.4-115.5,3.1c-10.3,0.2-17.1-10.6-12.5-19.8l2.8-5.5
				h-126.7c-6.3,0-10.5-6.5-7.9-12.3l7-15.3h-165.4c-9.8,0-15.4-11.1-9.6-19l21.8-29.5h-287.8c26.9-67.3,115.3-117.7,186.8-106
				c2.7-30.5,36.8-54.1,66.3-45.9c9.1-58.9,52.7-111.1,109-130.6c56.3-19.5,122.9-5.4,166.4,35.2c23.7-45.4,88.8-62.8,132.1-35.4
				c58.4-83.3,176.9-129.3,277.5-114.1V1362.6z"/>
			<path class="st33" d="M2222.5,924.4c-43.2-27.4-108.3-10-132.1,35.4c-43.6-40.6-110.1-54.7-166.4-35.2
				c-56.3,19.5-99.9,71.7-109,130.6c-29.6-8.2-63.6,15.4-66.3,45.9c-71.5-11.7-160,38.7-186.8,106c20-31.6,52.8-57.9,86.6-73.7
				c33.9-15.8,72.3-21.6,109.3-16.6c2.9-13.8,13.2-27.4,24.6-35.7s26-12.1,40-10.5c11.9-55.2,56.7-102.4,109.8-121.8
				c53.1-19.4,115.8-9.6,160.5,24.9c13.2-21.1,39.4-33.3,64-37c24.6-3.7,50.6,3.8,69.4,20c-18.5,13.4-26.4,40.3-32.1,62.5
				c-3.6,14.3-8.8,31.8-18.7,43.2c-10,11.5-30.7,17-45.2,18.3c-4.4,0.4-8.9,0.4-13,1.9c-4.1,1.5-8,4.7-8.6,9.1
				c-0.5,3.6,1.3,7.3,4,9.8c2.7,2.5,6.2,3.9,9.7,5c31.9,9.9,69-1.2,92.2-23.9c11.1-10.9,20.3-24.5,34.3-31.2
				c14.1-6.6,35.4-1.2,37.4,14.2c2.1,16.5-17.2,26-31.1,35c-14.5,9.5-26.3,24.4-28.5,41.6c-2.2,17.2,7,36.2,23.3,42.2
				c19.9,7.3,41.7-6,55.6-22.1c13.8-16.1,24.1-35.8,41.4-48.1c14.5-10.2,32.4-14.1,49.1-20.2s33.6-16,40.1-32.5
				c6.6-16.9,0.6-35.6-3.4-53.3c-4-17.6-5-38.8,8.3-51.1c13.2-12.1,33.5-9.5,51.1-12.6c2.7-0.5,5.4-1.1,8-1.8V810.3
				C2399.4,795.1,2280.9,841.1,2222.5,924.4z"/>
			<path class="st34" d="M2468.3,1229.4c-5,8.5-7.6,18.1-11.6,27.1c-4,9-9.9,17.8-19,21.7c-10.1,4.4-21.8,1.8-32.5,4.3
				c-12.5,3-22.3,12.7-30.3,22.8c-8,10.1-15.3,21.1-25.7,28.6c-10.4,7.5-25,9.1-36.9,4c-8.2-3.5-14.5-11.2-16.3-20
				c-1.8-8.8,1-18.3,7.2-24.7c3.4-3.5,8.2-7,7.8-11.9c-0.5-6.1-8.5-8.4-14.6-7.3c-18.2,3.1-32.1,20.8-50.5,21.3
				c-19.1,0.5-35.4-17.9-54.4-15.8c-10.5,1.1-21,8.5-30.9,4.6c-9.2-3.7-12.2-16-8.9-25.3c3.3-9.3,9.7-17.6,17.1-24.1
				c-13.6,4.7-25.7,19.2-34.8,30.4c-3,3.7-8.6,4-13.1,2.6s-8.5-4.1-13-5.7c-19.5-7-41.1,9.5-61,4.2c-6.6-1.8-13-6.7-13.8-13.5
				c-0.7-5.9,2.9-11.3,6.4-16.1c28-37.5,68.8-68.8,112.3-86.1c-55.7,9.3-111.6,40.9-144.9,86.6c-11.8-8.6-28-6.8-42.3-3.8
				s-29.6,6.8-43.1,1.4c-9.2-3.7-16.5-11.3-26-13.9c-13.6-3.8-28.6,0.9-40.9,7.8c33.7-63.8,107.1-104.9,179-98.5
				c8.9-16.1,23.7-29.7,41.5-34.2c-17.8-4-42.9,5.6-52.1,21.4c-37.4-6.8-129,8-162.6,68.9c-9.6,5.9-22.1,3.4-32.3-1.3
				s-19.5-11.6-30.4-14.4c-35.2-9.4-69.1,25.2-105.4,21.9c-14.9-1.4-29.5-9.1-44.2-6.4c-14.1,2.6-25.6,14.3-37.9,21.4h239.4
				l-21.8,29.5c-5.8,7.9-0.2,19,9.6,19h165.4l-7,15.3c-2.6,5.7,1.6,12.3,7.9,12.3h126.7l-2.8,5.5c-4.6,9.2,2.2,20,12.5,19.8
				c37.2-0.7,82.8-2.7,115.5-3.1c7.5-0.1,16.7,0.8,19.7,7.7c2.5,5.7-0.8,12.1-1.1,18.3c-0.6,10.2,7.3,19.4,16.7,23.6
				c9.4,4.2,19.9,4.4,30.2,4.6c54.9,1,123.8,2,178.8,3v-156.8C2487,1209.4,2475.2,1217.7,2468.3,1229.4z"/>
		</g>
		<g>
			<g>
				<path class="st32" d="M0,1390.8c62.5-2.3,136.1-3.3,198.6-2.5c26.1,0.3,55.5-17.2,81.1-21.9h271.5c14.6,0,28.9-3.9,41.1-11.3
					l23.3-14.1l53.4-11.3c17.1-3.6,25.8-20.9,17.5-34.9l-4.5-7.6l132.7-27.1l121.5-9.7c16.1-1.3,30.4-9.9,37.8-22.9l0,0h147.6
					c4.1,0,8.2,1.3,11.4,3.6l0,0c3.2,2.3,7.3,3.6,11.4,3.6h61.6c11.2,0,18.5-10.8,13.1-19.7c-32.3-54.2-90.7-97.6-157.8-104.2
					c-61.6-58.5-172.8-69.8-251.7-31.9c-33.6-28.7-88.5-34.3-128.3-13.1C619,966.6,481.3,911.4,358.2,936.2
					C277,857.2,117.2,819.4,0,839.6V1390.8z"/>
				<path class="st33" d="M1061.3,1110.9c-61.6-58.5-172.8-69.8-251.7-31.9c-33.6-28.7-88.5-34.3-128.3-13.1
					C619,966.6,481.3,911.4,358.2,936.2C277,857.2,117.2,819.4,0,839.6V1002c9.2,7.1,19.7,12.4,29.6,18.4
					c12.4,7.6,24.4,17.3,29.4,31c4.2,11.4,2.8,23.9,2.9,36c0.1,12.1,2.1,25.4,11,33.6c10.7,9.8,26.9,9.1,41.4,9.9
					c32,1.8,63.3,14.7,87.3,36c10.5,9.3,21,20.8,35,21.7c11,0.7,21.2-5.4,31.9-7.9c25.6-5.9,51.5,6.3,74.3,19.4
					c20.5,11.8,40.9,23.5,61.4,35.3c12.2,7,25.7,14.3,39.6,11.9c10.9-1.9,20.2-9.7,31.1-11.6c10.3-1.8,20.8,1.8,30.2,6.2
					c16.7,7.9,32,18.6,48.5,27c16.5,8.4,35,14.5,53.3,12.1c10.3-1.4,21.1-6.3,24.9-16c3.9-9.9-0.8-20.9-6.4-30
					c-14.1-22.7-34.8-41.2-58.7-53.2c-24-12-52.9-10.4-75.4-24.9c-32.4-20.9-38.3-66.7-65.8-93.7c-38.7-37.9-107.2-27.5-147.2-64
					c-20.5-18.7-32.2-48.7-58.3-58.1c-15.9-5.7-34-2.3-50.1-7.7c-18.3-6.2-30.8-22.8-43.7-37.2c-11.4-12.7-26-25.1-42.5-26.6
					c-2.2,0-4.4,0-6.7,0c2.3-0.2,4.5-0.2,6.7,0c89.9,0.4,183.3,33.4,250.1,93.4c61.9-19.6,131.4-14.7,192.7,6.7
					c61.3,21.4,115.3,63.1,151.6,117c41.3-19,95-17.4,133.8,6.2c41.3-15.4,85.2-23.8,129.1-20.6c44,3.2,87.8,19.5,119.6,50
					c73.6,4.1,138.7,69,153.2,84.6C1180.9,1156.6,1125,1117.2,1061.3,1110.9z"/>
				<path class="st34" d="M1219.1,1215.1c-0.1,1.6-0.5,3.1-1.1,4.5c-2.4,5.4-7.5,9.1-13.1,11s-11.5,2-17.4,1.9
					c-14.7-0.4-29.9-3.1-42.1-11.2c-5.4-3.6-10.3-8.4-16.5-10.6c-8.9-3.3-18.7-0.9-27.7,1.9c-14.9,4.6-31.3,10-45.5,3.6
					c-7.5-3.4-13.5-9.9-21.2-12.9c-10.1-3.9-21.6-1.3-31.7,2.5c-10.1,3.9-23.3,9.3-34.1,10.4c-12.6-21.3-32.7-37.5-55.8-46.4
					c14.3,8.1,27.1,19,37.5,31.7c3.3,4,6.5,8.7,6.4,13.9c-0.1,7.9-7.8,13.7-15.3,16.3c-11.6,4-24.7,3.5-35.9-1.4
					c-7.9-3.4-15-9-23.5-10.4c-13.4-2.3-26.1,6.3-37.1,14.3c-11,8-23.9,16.4-37.2,13.7c-8.6-1.7-15.8-7.8-24.1-10.6
					c-12.7-4.3-26.8-0.7-38.6,5.6c-11.8,6.3-22,15.1-33.4,22.2c-11.3,7.1-22.9,13.7-36.2,12.1c-13.8-18.7-29.9-35.5-48.2-49.9
					c12.9,13.8,23.2,30,30.2,47.5c3,7.6,5.5,15.9,3.7,23.9c-2.8,12.5-15.4,20.7-27.9,22.8c-11.3,1.9-23.8,0.2-33.7,6.2
					c-6.9,4.2-11.3,11.6-17.2,17.1c-12.9,12.1-18.4,20.2-34.1,12.1c-22.5-11.6-45.2-23.3-69.7-29.6c-24.5-6.3-51.3-6.8-74.3,3.7
					c-18.1,8.2-34.2,23.1-54,24.2c-29.7,1.6-52.3-28-81.5-33.7c-39.3-7.7-76.2,29.2-115.9,24.3c-27.6-3.4-48.8-26.2-75.2-34.9
					c-25.3-8.4-52-3.2-77.7,5.8v74.1c62.5-2.3,136.1-3.3,198.6-2.5c26.1,0.3,55.5-17.2,81.1-21.9h271.5c14.6,0,28.9-3.9,41.1-11.3
					l23.3-14.1l53.4-11.3c17.1-3.6,25.8-20.9,17.5-34.9l-4.5-7.6l132.7-27.1l121.5-9.7c16.1-1.3,30.4-9.9,37.8-22.9h147.6
					c4.1,0,8.2,1.3,11.4,3.6c3.2,2.3,7.3,3.6,11.4,3.6h61.6C1217.2,1234.8,1224.4,1224,1219.1,1215.1z"/>
			</g>
			<g>
				<path class="st28" d="M795.6,1251.7c7.3-5.5,16.6-9.5,25.5-7.3c7.3,1.8,13.3,7.5,20.8,8.7c6.4,1,13.3-1.8,17.2-7
					c2.8-3.7,3.9-8.6,3.3-13.2c-8.5-9.4-19.6-16.7-32-18.4c-18.7-2.5-36.9,7.9-51,20.4c-14.1,12.6-26.7,29.5-41.8,43h22.7
					c5.3-2,10.3-4.8,14.8-8.2C782.3,1264.3,788.3,1257.2,795.6,1251.7z"/>
				<path class="st29" d="M833.3,1267.8c-14.1,0.6-27.6,5-40.8,10.2h84.3l-7.8-3C858.3,1269.1,845.5,1267.3,833.3,1267.8z"/>
				<path class="st27" d="M865.6,1236.7c-1-1.3-2.1-2.5-3.2-3.8c0.6,4.6-0.5,9.4-3.3,13.2c-3.9,5.2-10.8,8.1-17.2,7
					c-7.5-1.2-13.5-6.9-20.8-8.7c-8.9-2.2-18.2,1.8-25.5,7.3c-7.3,5.5-13.3,12.6-20.6,18.1c-4.5,3.4-9.5,6.2-14.8,8.2h32.2
					c13.2-5.2,26.7-9.6,40.8-10.2c12.2-0.5,25,1.3,35.7,7.2l7.8,3H889C883.3,1265,874.4,1247.8,865.6,1236.7z"/>
			</g>
			<g>
				<path class="st28" d="M647,1376H389c19.4-32.6,40.2-69.3,72.8-88.7c10.4-6.2,22.6-10.8,34.6-8.5c12.8,2.5,22.8,12.5,30.8,22.9
					c4.6,6.1,8.9,12.5,13.8,18.4c5.4,6.5,14.6,8.2,22,4.1c6-3.4,12.6-5.6,19.3-5.3c6.7,0.3,12.9,3.8,18.4,7.7
					C617.3,1338.4,634.7,1359.7,647,1376z"/>
				<g>
					<path class="st29" d="M539.6,1367.9c-13.6,1.6-27.4,3.2-41,1.5c-12.2-1.5-24.2-5.6-36.4-4.9c-11.7,0.7-22.6,5.7-33,11.4h179.6
						c-8.3-5.5-18.3-8.6-28.2-9.7C567,1364.7,553.2,1366.3,539.6,1367.9z"/>
					<path class="st27" d="M637,1363.2c-11.1-5.6-22.3-10.9-34.1-14.6c-13.9-4.3-28.9-6.2-43.1-3.2c-14.5,3.1-28.6,11.2-43.2,8.5
						c-19.5-3.6-30.8-24.9-49.3-32c-10.1-3.9-21.6-3.1-31.9,0.1c-5.8,1.8-11.2,4.3-16.6,7c-10.9,15-20.5,31.4-29.7,46.9h40.2
						c10.4-5.7,21.2-10.7,33-11.4c12.3-0.7,24.2,3.4,36.4,4.9c13.6,1.7,27.4,0.1,41-1.5c13.6-1.6,27.4-3.2,41-1.6
						c10,1.2,19.9,4.2,28.2,9.7H647C643.9,1372,640.6,1367.6,637,1363.2z"/>
				</g>
			</g>
		</g>
		<path class="st36" d="M2427.5,1298c-0.1,0.1-0.1,0.1-0.2,0.2c-7.3,6.1-16.8,8.8-26.1,7.2c-10.9-1.8-22-3.4-32.9-4.6
			c-7.2-0.8-14.6,0.9-20.7,4.8c-17.4,11-35,21.1-50,35.2c7-12,11.6-25.3,13.5-39c1.1-8.1-0.5-19-9.5-19.4c-2.3-0.1-4.6,0.6-6.6,1.8
			c-15.2,8.9-27.3,23-33.7,39.5c4.8-14.4,9.6-29,10.7-44.1c1.2-15.1-1.7-31.1-10.9-43.1c-20.6,16.4-31.3,44.3-27.1,70.2
			c-5.8-32.1-12-65.2-30.8-92.2c-2.5-3.7-6.9-5.8-11.3-5.3c-9,1-10.3,11.1-9.9,19c1.4,28.7,6.8,57.1,15.9,84.3
			c-9.5-20.7-23.2-39.4-39.9-54.9c-8.9,2.9-9.8,15.1-7.9,24.3c4.8,23.6,16.6,45.9,33.9,62.8c-13.2-3-26.7-4.5-40.3-4.3
			c-4.9,0.1-10.1,0.4-14.1,3.3c-5.7,4.2-10,15.3-5.4,20.7c-13.8,0.4-28.5-0.4-42.9-1.8c-15.5-1.4-30.9,3.6-42.3,14.1
			c-0.2,0.2-0.5,0.4-0.7,0.6c-11.9,11.1-28,16.8-44.2,15c-16.6-1.9-33.4-3.7-49.8-5.2c-7.8-0.7-15.5,1.9-21.4,7.1
			c-0.1,0.1-0.1,0.1-0.2,0.2c-6.9,6.2-16.3,8.6-25.3,6.5c-14.2-3.4-28.8-7.4-42.7-11.8c-9.8-3.1-17.5-10.7-20.6-20.5
			c0-0.1-0.1-0.2-0.1-0.4c-3.6-11.2-13.1-19.4-24.7-21.5c-11.9-2.1-23.9-4.5-35.8-5.9c-5.6-6-11.5-12-18.7-16.2
			c-7.1-4.2-15.8-6.4-23.8-4.4c4.5-3.4,10-5.4,14.2-9.1c5.1-4.5,7.8-13.3,0.6-17.5c-2.3-1.3-5.1-1.7-7.7-1.3
			c-10.9,1.7-21.2,6.7-29.4,14.1c5.7-9,10.9-18.3,15.5-27.9c2.4-5,4.8-10.9,2.5-15.9c-0.6-1.4-1.6-2.6-3-3.2c-2-0.9-4.3-0.2-6.3,0.7
			c-9.3,4.4-15.1,13.7-20.3,22.6c2.6-13.3,5.2-26.7,7.9-40c2.3-11.5,4-24.9-4-33.4c-1-1.1-2.2-2.1-3.6-2.2c-2.6-0.4-4.8,2-6.3,4.2
			c-11.1,16.7-11.1,38.2-10.8,58.2c-2.4-12.5-5.9-24.8-10.6-36.6c-3.2-8-7.1-16.3-14.3-21.2c-1.7-1.2-3.9-2.2-6.1-0.2
			c-1.1,1-1.8,2.5-1.9,4c-2,23.4,2.7,46.6,15.5,66.3c-6.7-6.4-13.8-12.6-21.1-18.4c-3.2-2.5-7-5.2-11.1-4.3
			c-0.6,8.4,2.7,16.7,7.6,23.5c4.9,6.8,9.8,12.4,16.1,17.9c-39.4,19.5-80,36.4-122,49.1c-25.4,7.7-47,24.6-60.5,47.4
			c-4,6.7-8,13.4-12,20.1c-7.6,12.6-21.2,20.3-35.9,20.2c-0.1,0-0.3,0-0.4,0c-9.5-0.1-18.8,3.2-26.3,9.1
			c-16.1,12.9-32.6,26.7-47.8,40.8c-10.5,9.8-25.3,13.5-39.1,9.8c-11.7-3.1-24-6.4-35.6-8.6c-12.5-2.3-24-8.6-32.7-17.9
			c-1.1-1.1-2.1-2.3-3.2-3.4c-13.1-14.1-32.2-20.9-51.2-18.3c-0.8,0.1-1.7,0.2-2.5,0.3c-19.3,2.7-38.7-4.4-51.8-18.9
			c-0.2-0.2-0.3-0.3-0.5-0.5c-14-15.6-35.3-22.6-55.8-18.3c-24,5-49,9.5-71.6,13.5c6.7-8.6,13.8-16.9,21.2-24.8
			c2.5-2.7,5.2-5.5,6.5-9c1.3-3.5,1-7.9-1.8-10.4c-2.6-2.3-6.6-2.3-9.8-0.9c-3.2,1.4-5.7,3.8-8.2,6.3c-5.9,5.9-11.9,10.5-17.8,16.4
			c6-13,12-26,18-39c3.7-8,7.4-16,9.1-24.6c1.7-8.6,1.4-17.9-2.8-25.6c-6-1.6-11.1,4.4-14.2,9.7c-12.3,21.5-20.5,44.8-22.9,69.5
			c2.5-25.3,0.7-51-5.4-75.7c-0.9-3.8-3.1-7.3-6.3-9.6c-0.7-0.5-1.4-1-2.3-1.1c-1.9-0.1-3.2,1.8-4.1,3.5c-4.1,8.6-6.5,18-6.9,27.5
			c-0.3,7.3,0.5,14.7,1.3,22c1.5,13.4,2.4,26.2,3.9,39.6c-2.3-11.5-6.4-22.6-12-32.9c-1-1.9-2.2-3.8-4.3-4.7
			c-0.7-0.3-1.4-0.3-2.1-0.2c-2.5,0.6-3,3.2-3.2,5.4c-1.6,19.8,1.9,40.5,12.3,57.5c-5.7-1.9-10.2-8.1-16.1-7.1
			c-1.5,0.2-2.9,1-4.2,1.7c-5.4,3-12.6,6.5-17.2,10.7c-18.3-13.3-37.3-25.6-57-36.7c-1.6-0.9-3.3-1.9-5.2-2c-2.2-0.1-4.3,1-6.2,2
			c-14.7,8-32.9,14.1-47.6,22.1c-20.3-15.2-44.4-31.2-69-25.3c-13.7,3.3-24.9,12.9-35.8,21.9c-28.3,23.4-60.8,44.6-92.5,63
			c-7.2-6.5-14-13.9-20.1-21.5c-8.3,0.2-16.6-0.1-25-0.5c-2.5-4.4-3.8-10.1-4-15.2c-11.8-2-27.4,0.1-38.9,3.5
			c6.5-6.1,12.6-12.8,18.1-19.8c2.6-3.3,5.3-7.1,4.9-11.5c-0.2-2.1-1.3-4.2-3.1-5.3c-2.9-1.8-5.8-0.4-8.3,1c-6.3,3.5-12.4,7.6-18,12
			c-0.7,0.5-1.5,0.8-2.2,1c-0.6,0.7-1.3,1.4-1.9,2.1c-0.4-1.6,0.6-1.7,1.9-2.1c7.4-8.1,14.8-16.3,22.2-24.4
			c4.9-5.4,10-11.1,11.5-18.2c0.7-3.2-0.1-7.7-4.1-7.5c-0.7,0-1.4,0.2-2,0.5c-16.1,7.1-26.4,18.6-38,31.6
			c5.7-13.4,12.1-26.6,19.1-39.3c4.8-8.6,10.1-18.1,7.2-27.9c-0.4-1.4-1.6-2.6-3-2.9c-2-0.5-3.1,0.9-4,2.1
			c-12.3,17-21.1,36.9-28,56.7c5.4-27.7,8.4-55.8,9-84c0.1-4.8-0.4-10.5-4.6-12.7c-7.2,4.1-10.3,12.8-12.3,20.8
			c-6.6,26.7-9.8,54.4-10.2,81.8c-1.3-14.5-3.7-29-7.3-43.1c-0.4-1.7-1.3-3.3-2.6-4.5c-2.6-2.3-4.9-1.3-6.8,0.1
			c-4.1,2.9-7.1,7.4-8.1,12.3c-1.3,5.7-0.1,11.6,1.1,17.3c2.8,13.4,5.7,26.9,8.5,40.3c-4.9-9.1-11.6-17.2-19.6-23.8
			c-2-1.6-5.3-3.1-6.7-0.4c-0.4,0.7-0.4,1.6-0.2,2.4c4,15.6,7.5,31.6,17.2,44.5c-13.3-6-30.1-3.3-40.8,6.6
			c-6,5.6-11.7,13.8-21.1,9.7c-2.4-1-4.4-2.7-6.1-4.7c-12.6-15.3-25.2-30.6-37.8-46c-20.6-25.1-44.5-52-76.7-56
			c-45.2-5.5-90.2,36.6-132.5,19.9c-6.9-2.7-13.5-7-20.9-6.9c-8.8,0.2-16.1,6.5-24.4,9.5c-18.8,6.9-39-4-56.9-13
			c-8.7-4.4-18.6-8.2-28.2-9.6V1600h2500v-304.4c-16.2-0.9-32.4-2.4-47.8-4.5C2443.4,1289.9,2434.4,1292.3,2427.5,1298z"/>
		<g>
			<path class="st30" d="M912.7,1586.4c-8.4-5-18.5-6.7-28.1-5.2c4.4-1.7,8.4-4,11.3-7.7c5.1-6.4,4.1-18.1-3.8-20.5
				c-4.2-1.3-8.8,0.4-12.7,2.6c-6.7,3.7-12.7,8.6-17.7,14.4c8.6-12,15.7-25.2,21.1-39c2.5-6.4,4.6-13.8,1.5-19.9
				c-4-7.9-15.4-9.6-23.4-5.7c-8,3.9-13.2,11.8-17.5,19.6c-2.2,4.1-4,8-6.8,11.7c-1.6,2.1-3.2,4.1-4.8,6.2c-1.2,1.6-4,4-4.5,5.9
				c1.3-4.2,2.6-8.5,2.3-12.9c-0.3-4.4-2.6-9-6.6-10.7c-4.3-1.8-9.4,0-12.6,3.4c-3.2,3.4-4.6,8-5.4,12.6c-0.4,2.7-0.7,5.4-1,8.1
				c-0.1,0.5-0.2,1.1-0.3,1.7c0.3-9.8-0.4-19.8-1.3-29.5c-0.9-10.1-0.9-19.1-6.2-28.2c-1.3-2.3-3.3-4.7-5.9-4.3
				c-2.5,0.3-3.8,3.1-4.6,5.5c-3.5,10.8-4.7,22.4-3.3,33.7c1.3,10.6,2.4,21.4,4.6,31.9c-4.1-19.1-11.3-37.6-21.3-54.4
				c-3.1-5.2-7.5-10.8-13.5-10.5c-8.1,0.4-11.3,10.5-11.8,18.6c-1.3,20.4,1.2,41.1,7.3,60.7c-4.7-9.5-9.9-19.6-19.3-24.5
				c-9.4-4.9-23.9-0.9-25.4,9.5c-0.9,5.8,2.4,11.4,5.9,16.2c6.6,9.1,14.3,17.3,23,24.4h194.5C923,1594.5,918.3,1589.7,912.7,1586.4z
				"/>
			<path class="st30" d="M1349.8,1586.1c-14.2-2.2-28.6,1.3-42.1,6.1c3.3-3.8,2.5-10.1-1-13.7c-3.5-3.6-9-4.7-13.9-3.8
				c-4.9,0.9-11.8,2.1-15.8,5.2c3.7-6.6,7.3-15,3-21.2c-2.5-3.6-7.1-5.3-11.5-5.1c-4.4,0.1-8.5,1.8-12.5,3.6
				c-6.8,3.2-13.2,6.1-19.2,9.8c10.7-10.5,18.6-24.1,20.9-38.8c0.5-3.6,0.4-7.8-2.5-10c-3.1-2.3-7.6-0.8-11,1.2
				c-11.9,6.9-19.8,18.6-27.9,29.3c-8.7,11.5-16,24.1-21.4,37.5c4.3-10.6,5.3-22.4,3.1-33.6c-0.5-2.7-1.5-5.6-3.9-6.9
				c-2.8-1.5-6.3,0-8.9,1.8c-9.6,6.4-19,13.5-21.4,24.8c6.1-26.5,7.2-54,3.3-80.9c-0.6-4-1.8-8.6-5.5-10.1
				c-5.5-2.1-10.3,4.5-12.3,10c-8.5,23.4-13,46.1-9,70.7c-1.7-9.4-4-18.7-7-27.8c-2.6-7.8-4.7-15.8-7.4-23.7c-1.3-3.8-3-7.8-6.6-9.6
				c-4.6-2.3-10.5,0.3-13.3,4.6c-2.8,4.3-2.9,9.8-2.2,14.9c3,20.4,8.6,41.7,21.8,58c-6.8-8.4-15.1-15.6-24.3-21.3
				c-2.1-1.3-4.5-2.5-6.9-2.1c-5.1,0.9-6.1,7.8-4.8,12.8c2.1,7.5,7.1,15.1,13.6,20c-17.2-6.7-35.8-10.1-54.2-9.9
				c-6,0.1-12.6,0.9-16.4,5.5c-3.7,4.6-2.9,11.5,0.4,16.5h342.7C1369.4,1592.5,1359.7,1587.6,1349.8,1586.1z"/>
			<path class="st30" d="M183,1581.3c-19.5-5.2-40.2-5.4-59.8-0.5c14.5-4.2,28.9-8.8,43-14c2.6-0.9,5.4-2.1,6.4-4.6
				c1.3-3-0.7-6.5-3.5-8.1c-2.8-1.6-6.2-1.7-9.4-1.7c-14.4,0.1-28.8,2.3-42.7,6.3c16.6-5.3,32.6-12.4,47.7-21
				c6.1-3.5,12.3-7.4,16.1-13.4c3.8-5.9,4.4-14.4-0.3-19.7c-2.8-3.1-7.1-4.6-11.3-5.2c-13.4-1.7-26.3,5.2-38.1,11.8
				c-15.9,9-31.8,17.9-47.7,26.9c9.3-7.8,17.8-16.5,25.4-26c3.3-4.1,6.5-8.6,7.2-13.8c0.7-5.2-2.1-11.3-7.2-12.5
				c-3.3-0.8-6.7,0.5-9.8,1.9c-17,7.9-31.7,20.9-41.5,36.9c7.5-14.2,15-28.3,22.5-42.5c7.8-14.7,15.8-31.2,11.7-47.4
				c-0.8-3-2.1-6.1-4.4-8.2c-4.2-4-11-4-16.2-1.6c-5.2,2.5-9.2,7-12.7,11.6c-15.3,20.2-24.7,44.8-26.8,70
				c-1.2-12.7-3.2-25.3-6.1-37.7c-2.7-11.6-6.5-23.4-14.8-31.9c-3-3.1-6.8-5.5-10.9-7.1V1600h200.2c0.4-3,0.1-6.1-1.4-8.8
				C195.7,1585.6,189.2,1583,183,1581.3z"/>
			<path class="st30" d="M550.6,1587.3c-12.3-6.1-27.8-5.1-39.2,2.5c6.4-6.2,13.1-12.8,16.1-21.2c3-8.4,1.1-19.3-6.6-23.9
				c-8-4.7-18.1-1-26.3,3.3c-11.8,6.3-23,13.7-33.3,22.3c0.4-0.5,0.8-1,1.1-1.6c2.6-4.2,4.6-8.5,3.8-13.6c-0.4-2.3-1.5-4.5-3.4-5.8
				c-2.8-1.8-6.6-1.1-9.8,0c-8.9,3.1-15.3,8.3-22.6,14c-7,5.5-14.2,11.9-19.3,19.3c12.6-18.4,25.3-36.7,37.9-55.1
				c2.7-3.9,5.4-7.9,6.2-12.5c0.9-4.6-0.6-10-4.7-12.3c-6.3-3.5-13.8,2-18.5,7.5c-14.7,16.6-26.1,36.2-33.4,57.1
				c4.2-13.6,7.9-27.3,11.1-41.2c1.1-4.9,1.7-11.2-2.5-14c-5.8-4-12.8,3.2-16,9.5c-9.3,18.6-15.8,38.5-19.2,59
				c6.1-36.7,6.9-74.4,2.5-111.3c-0.7-5.6-2.6-12.3-8.1-13.4c-6.7-1.3-10.9,7-12.3,13.7c-5.5,26.4-5.5,53.9-0.3,80.3
				c-4.1-17.1-10.5-33.6-18.9-49.1c-2.4-4.5-5.9-9.4-11-9.7c-4.3-0.2-8.1,3.2-9.7,7.3c-1.5,4-1.3,8.5-0.9,12.8
				c2.9,31.2,12.8,61.8,28.7,88.8h222.9C561.4,1594.7,556.4,1590.2,550.6,1587.3z"/>
			<path class="st30" d="M2480.4,1512.7c-1.4-30-2.8-60.1-4.2-90.1c-0.4-7.9-2.2-17.8-9.8-19.9c-4.8-1.3-10.1,1.4-13.1,5.4
				c-3,4-4.2,9-5.3,13.9c-6.2,30.2-7.7,62-2,92.3c-9.5-42.2-19-84.5-28.4-126.7c-1.4-6.3-2.9-12.8-6.4-18.3
				c-3.5-5.5-9.6-9.8-16.1-9.4c-6.1,0.4-11.4,4.8-14.3,10.2c-2.9,5.4-3.8,11.6-4.4,17.7c-4.5,47,6.8,94.5,33,133.7
				c-8.1-11.9-16.1-23.8-24.2-35.8c-3.5-5.2-8.1-11-14.4-11.1c-5-0.1-9.5,3.8-11.5,8.4c-2,4.6-2,9.8-1.5,14.8
				c2.8,32.3,21.5,62,50.1,77.2c-13.6,0.7-25.3,11.9-28.6,24.9H2500v-151.3C2486.6,1467.1,2479.1,1489.5,2480.4,1512.7z"/>
			<path class="st30" d="M1735,1577.5c-8.9-3-18.6-2.8-27.8-0.9c-9.2,1.9-19.6,2.3-28.3,5.8c13.4-6.5,25.7-15.2,36.3-25.6
				c2.9-2.9,5.9-6.8,4.6-10.7c-1.4-4.2-6.8-5.3-11.2-5c-16.9,1.2-30.9,10.6-43.7,21.7c13.2-20.1,23.7-42,31.1-64.8
				c1.6-4.8,2.7-10.9-1.1-14.3c-2.4-2.2-6.2-2.3-9.3-1.1c-3,1.2-5.5,3.6-7.8,5.9c-19.7,20.2-36.8,48.5-41.6,76.4
				c1-15.7-1.9-29.9-2.8-45.2c-1-17.8-2.8-35.4-6.8-52.8c-1.2-5.2-3.2-11.2-8.3-12.9c-3.6-1.2-7.7,0.5-10.4,3.2
				c-2.7,2.7-4.1,6.4-5.3,10c-5.4,17.2-4.8,35.6-1.8,53.1c2.6,15.1,4.8,35.6,11.6,49.4c-10.3-21-23.2-40.8-38.2-58.8
				c-1.8-2.1-4.3-4.4-6.9-3.5c-2.4,0.9-3,3.9-3.1,6.4c-0.4,12.8,4,25.4,10.5,36.5c6.5,11.1,13.3,20.2,21.8,29.9
				c-11.7-5.5-23.5-10.9-35.2-16.4c-5.9-2.7-14.2-4.8-17.6,0.7c-3.3,5.5,2.2,12,7.4,15.8c10.3,7.5,21.3,14.1,32.8,19.6h172.2
				c-0.2-1.4-0.6-2.7-1.1-4C1751.8,1587.2,1743.9,1580.5,1735,1577.5z"/>
			<path class="st30" d="M2331.7,1582.1c-14.1-9.6-36.9-14.5-46.8-0.6c9.7-12.9,17-27.5,21.7-42.9c1.4-4.5,2.4-9.7-0.1-13.6
				c-2.4-3.7-7.4-5-11.7-4.2c-4.3,0.8-8.1,3.4-11.6,6.1c-9.7,7.6-20.2,14.5-27.8,23.7c14.9-25.2,26.6-52.3,34.4-80.5
				c2.1-7.7,4-15.8,2.3-23.6s-8-15.1-16-15.5c-8.4-0.3-15.1,6.8-20.2,13.5c-21.4,28.5-34.2,57-41.8,91.9c4.5-51-2.8-103-21-150.9
				c-2.5-6.6-6.7-14.2-13.8-14.4c-8.1-0.2-12.4,9.3-14.3,17.2c-11.4,49.5-14.7,100.4,1.2,148.1c-5.2-11.7-13.8-22-24.4-29.2
				c-5-3.4-11.4-6.2-16.9-3.7c-6.3,2.8-8.2,10.8-8.4,17.6c-0.4,17.4,5.2,34.9,15.6,48.8c-3.1-3.8-6.4-7.3-10.3-10.1
				c-5.4-3.8-12.4-5.9-18.8-4c-11.9,3.6-15.8,19.7-10.8,31.1c2.1,4.9,5.4,9.1,9.2,12.9h246.9
				C2343.9,1592.9,2338.6,1586.7,2331.7,1582.1z"/>
			<path class="st30" d="M2074.8,1586c-9.8-6.8-25.5-6.4-31.6,3.8c3.3-5.5,6.7-11.4,7.2-17.8c0.5-6.4-2.8-13.7-9-15.5
				c-4.1-1.2-8.5,0.2-12.4,1.8c-13.2,5.5-25.1,14.2-34.3,25.2c13.1-17.5,25.5-35.6,37.1-54.1c4.8-7.6,9.1-18.5,2.5-24.6
				c-3.5-3.2-9.1-3.4-13.5-1.7c-4.5,1.8-8,5.2-11.4,8.6c-15.5,15.9-28,31.1-37.7,51.1c7.7-30.7,15.4-61.6,18.4-93.1
				c0.4-4.7,0.8-9.6-0.8-14.2s-5.3-8.6-10-9c-5.8-0.5-10.6,4.2-14,8.9c-10.4,14.3-15.8,31.9-18,49.5c-1.6,13.1-1.5,26.4-0.8,39.6
				c-2-26.5-5.8-52.9-11.5-78.8c-0.8-3.6-1.7-7.4-4.1-10.2c-2.4-2.8-6.9-4.2-10-2.1c-3,2-3.4,6.2-3.4,9.8
				c-0.4,35.5,5.2,71.4,19.5,104c-8.5-19.7-17.9-38.9-28.3-57.7c-1.7-3-4.2-6.4-7.5-6c-4.1,0.5-5.1,5.9-5,10
				c1.1,27.8,12.3,55,31,75.6c-10.5-2.5-21.3-5-31.9-3.1c-8.5,1.5-16.8,6.7-20.6,14.1h212.7C2084,1594.5,2080,1589.6,2074.8,1586z"
				/>
		</g>
		<g>
			<path class="st30" d="M264.2,328.7c23.6-2.8,42.5-21.6,53.6-42.6c5.1,25.9,20.3,49.6,41.8,65c-9.5-23.6-19.2-47.8-19.4-73.2
				c10.8,19.1,25.7,35.9,43.4,48.9c-4.5-14.7-10.6-28.8-18.1-42.2c-6.8-12.1-14.7-23.6-19.6-36.5c-5.5-14.5-7-30-10.7-45
				c-1.1-4.6-2.5-16-7.9-17.8c-6.4-2.2-5.9,8.7-6.8,13c-6.3,29.8-16.4,58.9-30.1,86.1C282.8,299.8,274,314.6,264.2,328.7z"/>
			<path class="st30" d="M315.7,326.4c-27.3,55-55.5,111.4-101,152.6c-27.6,25-62.3,45.5-76.1,80.1c35.6-6.6,65.1-30.9,91.7-55.6
				c-10.2,18.2-17.3,38.1-21.1,58.6c22.4-16.9,41.7-37.9,56.7-61.6c0.3,14.6,0.6,29.3,1,43.9c0.2,9.5,0.7,19.8,7.1,26.8
				c16.9-27.8,27.4-59.5,30.4-91.9c4.6,15.8,9.3,31.6,13.9,47.4c3.7,12.4,8.1,25.9,18.9,33c8.3-20.8,13.5-42.9,15.4-65.2
				c9.2,20.6,20.6,40.3,34,58.5c5.4-21.7,3.6-45.2-5-65.8c33.6,37.2,82.8,62.7,132.6,68.7c-35.8-58-87.6-105-137.4-151.7
				C354.6,383.4,323.6,355.8,315.7,326.4z"/>
			<path class="st30" d="M319.8,572.1c-33.4,56.7-72.2,110.6-119.3,156.5c-47.1,46-102.7,83.9-164.6,106.1
				c22.4,3.7,45.6,2.4,67.4-3.9C87,842.4,74.5,859.1,68,878c29.8-10.4,57.8-25.7,82.6-45.2c-15.4,18.2-24,41.9-24,65.8
				c40.4-20.9,77.3-48.8,108.6-81.9c-3.1,15-4.3,30.4-3.5,45.7c31.8-16.1,58.4-42.4,74.9-74c4.1,21.8,12.2,42.7,23.9,61.6
				c3-13.3,6-26.6,9-40c22.2,38.1,60,66.7,102.7,77.9c-6.1-20.4-12.2-40.9-18.3-61.3c29.7,28.1,67,48.9,105.5,62.6
				c-4.5-11.6-11.3-22.4-19.9-31.4c25.2,20.3,57.4,31.7,89.7,31.7c-12-7-23-15.7-32.6-25.7c14.4,5.6,29.8,8.7,45.2,9.2
				c-10.4-7.1-20.7-14.2-31.1-21.3c23.4,6.1,46.4,13.5,69,22c-0.4-9.6-8.7-16.8-16.3-22.7c-13.9-10.8-27.8-21.6-41.7-32.4
				c28.5,7.9,58,15.8,87.3,11.7c-53.2-21.8-106.1-44.5-158.5-68.2c8.4-3,16.3-7.7,23-13.6c-1.3,1.2-12.4-1.6-14.3-1.9
				c-4.6-0.9-9.1-2.4-13.5-4c-16.3-5.7-32.9-10.8-47.7-20c-15-9.4-28.2-21.3-41-33.3c-19.9-18.8-39.3-38.1-58-58.1
				c-9.4-10-18.6-20.1-27.6-30.4C338.7,597.8,317.3,576.3,319.8,572.1z"/>
			<path class="st30" d="M449.5,967.7c39.1,44.3,80.8,86.4,124.8,125.9c21.7,19.5,41.3,36,57.9,60.1c8.3,12,15.9,24.4,22.9,37.2
				c4,7.3,10.9,31.3,17.4,35.3c-26.1-16.1-49.9-35.8-70.5-58.4c9.4,25.6,24.6,49.2,44.1,68.3c-46.9-9.3-88.2-43.1-106.5-87.2
				c0.4,24.2,0.8,48.5,1.2,72.7c-16-29.2-32-58.5-48-87.7c4.3,15.5,8.6,31,12.9,46.4c-32.1-25.6-58.4-58.4-76.4-95.4
				c3.9,47.9,19.9,94.7,46.1,135c-46.2-21.3-87.6-52.9-120.3-91.9c1.6,24.4,3.2,48.8,4.8,73.2c-29.1-26.1-52.3-58.7-67.5-94.7
				c-3.1,18.4-6.2,36.8-9.3,55.2c-8.7-25.1-14.6-51.2-17.5-77.6c-13,40.3-39.3,76.3-73.8,100.9c2.5-13.9,2.4-28.3-0.6-42.1
				c-19.6,25.6-39.2,51.2-58.7,76.9c-2.7-26.4,1-53.5,10.6-78.3c-25.4,27.5-57.1,49.1-91.9,62.9c3.9-27.4,14.2-53.9,29.9-76.7
				c-27,10.8-54,21.6-81,32.3c16.6-34,42.7-63.2,74.7-83.4c-22,2.4-43.9,4.7-65.9,7.1c69.9-22.4,135.1-59.3,190.4-107.6
				c-13.1,1.9-26.2,3.8-39.3,5.8c46.1-22,86.6-55.8,116.5-97.2c14.4-19.9,30.7-40,42.6-61.5c43.1,61.9,100.2,113.5,168.3,145.9
				C476.6,969.7,459.6,971.6,449.5,967.7z"/>
			<polygon class="st30" points="323.9,225.9 308.6,351.1 308.6,625.1 304,898.6 270.3,1194.7 278.9,1255 253.1,1323.9 246.2,1600 
				347.8,1600 339.5,1346.3 347.8,1272.2 339.5,1194.7 336.2,874.4 326.3,486.8 328.9,285.2 			"/>
		</g>
		<g>
			<path class="st36" d="M2123.6,547.5c-15.6-1.8-28.1-14.3-35.4-28.1c-3.4,17.1-13.4,32.8-27.6,42.9c6.3-15.6,12.7-31.6,12.8-48.4
				c-7.1,12.6-17,23.7-28.7,32.3c3-9.7,7-19,12-27.9c4.5-8,9.7-15.6,13-24.1c3.6-9.6,4.6-19.8,7-29.7c0.8-3,1.7-10.5,5.2-11.7
				c4.2-1.4,3.9,5.8,4.5,8.6c4.2,19.7,10.9,38.9,19.9,56.9C2111.3,528.4,2117.1,538.2,2123.6,547.5z"/>
			<path class="st36" d="M2089.6,546c18,36.3,36.7,73.6,66.7,100.8c18.2,16.5,41.2,30.1,50.2,52.9c-23.5-4.3-43-20.4-60.6-36.7
				c6.7,12,11.4,25.1,13.9,38.7c-14.8-11.2-27.5-25-37.4-40.7c-0.2,9.7-0.4,19.3-0.6,29c-0.1,6.2-0.5,13.1-4.7,17.7
				c-11.2-18.4-18.1-39.3-20.1-60.7c-3.1,10.4-6.1,20.9-9.2,31.3c-2.4,8.2-5.3,17.1-12.5,21.8c-5.5-13.7-8.9-28.3-10.2-43.1
				c-6.1,13.6-13.6,26.6-22.5,38.6c-3.6-14.4-2.4-29.8,3.3-43.5c-22.2,24.6-54.7,41.4-87.6,45.4c23.7-38.3,57.9-69.3,90.7-100.2
				C2063.9,583.6,2084.4,565.4,2089.6,546z"/>
			<path class="st36" d="M2086.9,708.3c22.1,37.4,47.7,73,78.8,103.4c31.1,30.3,67.8,55.4,108.7,70.1c-14.8,2.5-30.1,1.6-44.5-2.6
				c10.8,7.6,19,18.7,23.3,31.2c-19.7-6.8-38.2-17-54.6-29.9c10.1,12,15.9,27.7,15.9,43.4c-26.7-13.8-51.1-32.2-71.7-54.1
				c2,9.9,2.8,20.1,2.3,30.2c-21-10.6-38.5-28-49.4-48.9c-2.7,14.4-8.1,28.2-15.8,40.7c-2-8.8-4-17.6-6-26.4
				c-14.7,25.1-39.6,44.1-67.8,51.4c4-13.5,8-27,12.1-40.5c-19.6,18.5-44.2,32.3-69.7,41.4c3-7.7,7.5-14.8,13.2-20.7
				c-16.6,13.4-37.9,21-59.3,21c7.9-4.6,15.2-10.4,21.5-17c-9.5,3.7-19.7,5.7-29.9,6c6.8-4.7,13.7-9.4,20.5-14
				c-15.4,4-30.7,8.9-45.6,14.5c0.2-6.4,5.7-11.1,10.8-15c9.2-7.1,18.4-14.2,27.6-21.4c-18.8,5.2-38.3,10.4-57.7,7.7
				c35.2-14.4,70.1-29.4,104.7-45.1c-5.6-2-10.7-5.1-15.2-9c0.9,0.8,8.2-1,9.5-1.3c3.1-0.6,6-1.6,8.9-2.6
				c10.8-3.8,21.7-7.1,31.5-13.2c9.9-6.2,18.6-14,27.1-22c13.2-12.4,25.9-25.2,38.3-38.4c6.2-6.6,12.3-13.3,18.2-20.1
				C2074.4,725.2,2088.5,711.1,2086.9,708.3z"/>
			<path class="st36" d="M2001.2,969.5c-25.8,29.3-53.3,57.1-82.4,83.1c-14.4,12.9-27.3,23.8-38.2,39.7
				c-5.5,7.9-10.5,16.1-15.2,24.6c-2.6,4.8-7.2,20.7-11.5,23.3c17.2-10.6,32.9-23.6,46.6-38.6c-6.2,16.9-16.3,32.5-29.1,45.1
				c31-6.1,58.2-28.5,70.4-57.6c-0.3,16-0.5,32-0.8,48c10.6-19.3,21.1-38.6,31.7-57.9c-2.8,10.2-5.7,20.5-8.5,30.7
				c21.2-16.9,38.6-38.6,50.4-63c-2.6,31.6-13.1,62.6-30.5,89.1c30.5-14.1,57.9-35,79.4-60.7c-1.1,16.1-2.1,32.2-3.2,48.4
				c19.2-17.2,34.5-38.8,44.6-62.5c2,12.2,4.1,24.3,6.1,36.5c5.8-16.6,9.7-33.8,11.6-51.2c8.6,26.6,25.9,50.4,48.8,66.6
				c-1.7-9.2-1.6-18.7,0.4-27.8c12.9,16.9,25.9,33.8,38.8,50.8c1.8-17.5-0.7-35.3-7-51.7c16.8,18.1,37.7,32.4,60.7,41.5
				c-2.5-18.1-9.4-35.6-19.8-50.7c17.8,7.1,35.7,14.2,53.5,21.4c-10.9-22.4-28.2-41.7-49.3-55.1c14.5,1.6,29,3.1,43.5,4.7
				c-46.2-14.8-89.3-39.2-125.8-71c8.7,1.3,17.3,2.5,26,3.8c-30.5-14.6-57.2-36.8-77-64.2c-9.5-13.2-20.3-26.4-28.2-40.6
				c-28.4,40.9-66.2,75-111.2,96.4C1983.3,970.8,1994.5,972.1,2001.2,969.5z"/>
			<polygon class="st36" points="2084.2,479.6 2094.3,562.3 2094.3,743.2 2097.3,923.9 2103.9,1129.5 2106.8,1168.6 2107.2,1203.5 
				2106.9,1387.1 2068.4,1387.1 2072,1216.4 2068.4,1170.7 2073.9,1119.5 2076,907.9 2082.6,651.9 2080.9,518.8 			"/>
		</g>
	</g>
</g>
</svg>
